SplineFontDB: 3.0
FontName: OesolSerif-Regular
FullName: Oesol Serif Regular
FamilyName: Oesol Serif
Weight: Regular
Copyright: Copyright (c) 2019, Jihu Kim
FontLog: "This font is derived and modified from Noto Serif Regular."
Version: 1.1
ItalicAngle: 0
UnderlinePosition: -125
UnderlineWidth: 50
Ascent: 800
Descent: 200
InvalidEm: 0
LayerCount: 2
Layer: 0 0 "Back" 1
Layer: 1 0 "Fore" 0
XUID: [1021 774 1001095470 3451568]
FSType: 0
OS2Version: 0
OS2_WeightWidthSlopeOnly: 0
OS2_UseTypoMetrics: 1
CreationTime: 1554933097
ModificationTime: 1560674634
PfmFamily: 17
TTFWeight: 400
TTFWidth: 5
LineGap: 90
VLineGap: 0
OS2TypoAscent: 0
OS2TypoAOffset: 1
OS2TypoDescent: 0
OS2TypoDOffset: 1
OS2TypoLinegap: 90
OS2WinAscent: 0
OS2WinAOffset: 1
OS2WinDescent: 0
OS2WinDOffset: 1
HheadAscent: 0
HheadAOffset: 1
HheadDescent: 0
HheadDOffset: 1
OS2Vendor: 'PfEd'
Lookup: 258 0 0 "'kern' Horizontal Kerning lookup 0" { "'kern' Horizontal Kerning lookup 0-2" [150,0,2] "'kern' Horizontal Kerning lookup 0-1" [150,0,2] "'kern' Horizontal Kerning lookup 0-3" [150,0,2] } ['kern' ('DFLT' <'dflt' > ) ]
MarkAttachClasses: 1
DEI: 91125
KernClass2: 2 2 "'kern' Horizontal Kerning lookup 0-2"
 7 uniE02D
 7 uniE024
 0 {} 0 {} 0 {} -44 {}
KernClass2: 2 2 "'kern' Horizontal Kerning lookup 0-1"
 7 uniE02E
 7 uniE024
 0 {} 0 {} 0 {} 0 {}
KernClass2: 2 2 "'kern' Horizontal Kerning lookup 0-3"
 7 uniE021
 7 uniE02E
 0 {} 0 {} 0 {} 40 {}

StartChar: uniE000
Encoding: 57344 57344 0
Width: 660
VWidth: 0
Flags: W
HStem: -10 47<193.839 374.161> 670 50<117.339 428> 678 42<542.5 624>
VStem: 36 52<545 580> 39 101<98.1801 221> 428 101<98.0736 664.252>
LayerCount: 2
Fore
SplineSet
428 670 m 1xcc
 192 670 l 2xcc
 166 670 146.166992188 666.333007812 132.5 659 c 0
 118.833007812 651.666992188 109.166992188 641.333007812 103.5 628 c 0
 97.8330078125 614.666992188 94 598.666992188 92 580 c 2
 88 545 l 1
 36 545 l 1
 42 720 l 1
 624 720 l 1
 624 678 l 1
 611 678 l 2xb4
 588.333007812 678 569 673.833007812 553 665.5 c 0
 537 657.166992188 529 637.333007812 529 606 c 2
 529 221 l 1
 528.998046875 219.595703125 l 2
 528.840820312 160.28515625 518.673828125 114.904296875 498.5 81.5 c 0
 478.166992188 47.8330078125 450.833007812 24.1669921875 416.5 10.5 c 0
 382.166992188 -3.1669921875 343.666992188 -10 301 -10 c 2
 267 -10 l 2
 224.333007812 -10 185.833007812 -3.1669921875 151.5 10.5 c 0
 117.166992188 24.1669921875 89.8330078125 47.8330078125 69.5 81.5 c 0
 49.1669921875 115.166992188 39 161 39 221 c 1
 140 221 l 1
 140 173.666015625 145.333007812 136.666992188 156 110 c 0
 166.666992188 83.3330078125 182 64.5 202 53.5 c 0
 222 42.5 246.333007812 37 275 37 c 2
 293 37 l 2
 321.666992188 37 346 42.5 366 53.5 c 0
 386 64.5 401.333007812 83.3330078125 412 110 c 0
 422.666992188 136.666992188 428 173.666992188 428 221 c 2
 428 670 l 1xcc
EndSplineSet
EndChar

StartChar: uniE001
Encoding: 57345 57345 1
Width: 623
VWidth: 0
Flags: W
HStem: 0 50<234 489.155> 0 42<38 119.5> 672 42<38 119.5 247.213 329>
VStem: 133 101<55.7476 657.93> 529 52<162.5 215>
LayerCount: 2
Fore
SplineSet
38 0 m 1x78
 38 42 l 1
 51 42 l 2x78
 73.6669921875 42 93 46.1669921875 109 54.5 c 0
 125 62.8330078125 133 82.6669921875 133 114 c 2
 133 600 l 2
 133 631.333007812 125 651.166992188 109 659.5 c 0
 93 667.833007812 73.6669921875 672 51 672 c 2
 38 672 l 1
 38 714 l 1
 329 714 l 1
 329 672 l 1
 316 672 l 2
 294 672 274.833007812 668 258.5 660 c 0
 242.166992188 652 234 633.333007812 234 604 c 2
 234 50 l 1
 431 50 l 2xb8
 451 50 467.166992188 54.5 479.5 63.5 c 0
 491.833007812 72.5 501 83.8330078125 507 97.5 c 0
 513 111.166992188 517 125.333007812 519 140 c 2
 529 215 l 1
 581 215 l 1
 574 0 l 1
 38 0 l 1x78
EndSplineSet
EndChar

StartChar: uniE002
Encoding: 57346 57346 2
Width: 614
VWidth: 0
Flags: HW
LayerCount: 2
Fore
SplineSet
361 -10 m 0
 295 -10 239.333007812 5.3330078125 194 36 c 0
 148.666992188 66.6669921875 114.5 109.5 91.5 164.5 c 0
 68.5 219.5 57 284 57 358 c 0
 57 430 69.1669921875 493.5 93.5 548.5 c 0
 117.833007812 603.5 153.666992188 646.5 201 677.5 c 0
 248.333007812 708.5 307.333007812 724 378 724 c 0
 446 724 496.666992188 713.333007812 530 692 c 0
 563.333007812 670.666992188 580 644 580 612 c 0
 580 590.666992188 571.666992188 573.666992188 555 561 c 0
 538.333007812 548.333007812 517.666992188 542 493 542 c 1
 493 562.666992188 489.333007812 582.833007812 482 602.5 c 0
 474.666992188 622.166992188 462.5 638.5 445.5 651.5 c 0
 428.5 664.5 405.333007812 671 376 671 c 0
 300.666992188 671 247.166992188 643.833007812 215.5 589.5 c 0
 183.833007812 535.166992188 168 458 168 358 c 0
 168 298 175.166992188 245.333007812 189.5 200 c 0
 203.833007812 154.666992188 226.166992188 119.333007812 256.5 94 c 0
 286.833007812 68.6669921875 326.666992188 56 376 56 c 0
 424.666992188 56 462.833007812 64.5 490.5 81.5 c 0
 518.166992188 98.5 540.333007812 118.333007812 557 141 c 1
 562.333007812 137.666992188 566.833007812 132.833007812 570.5 126.5 c 0
 574.166992188 120.166992188 576 112 576 102 c 0
 576 85.3330078125 568.333007812 68.3330078125 553 51 c 0
 537.666992188 33.6669921875 514.166992188 19.1669921875 482.5 7.5 c 0
 450.833007812 -4.1669921875 410.333007812 -10 361 -10 c 0
EndSplineSet
EndChar

StartChar: uniE003
Encoding: 57347 57347 3
Width: 544
VWidth: 0
Flags: HW
LayerCount: 2
Fore
SplineSet
285 -10 m 0
 201.666992188 -10 141.833007812 8 105.5 44 c 0
 69.1669921875 80 51 129 51 191 c 0
 51 242.333007812 67.3330078125 283.666992188 100 315 c 0
 132.666992188 346.333007812 178.333007812 374 237 398 c 0
 275.666992188 414 306.333007812 429.166992188 329 443.5 c 0
 351.666992188 457.833007812 367.833007812 474.166992188 377.5 492.5 c 0
 387.166992188 510.833007812 392 533.333007812 392 560 c 0
 392 590 383 616.5 365 639.5 c 0
 347 662.5 317.333007812 674 276 674 c 0
 246 674 222.5 667.333007812 205.5 654 c 0
 188.5 640.666992188 176.333007812 623.833007812 169 603.5 c 0
 161.666992188 583.166992188 158 562.666992188 158 542 c 1
 134 542 114.833007812 547.5 100.5 558.5 c 0
 86.1669921875 569.5 79 585.666992188 79 607 c 0
 79 626.333007812 86.5 645 101.5 663 c 0
 116.5 681 138.666992188 695.666992188 168 707 c 0
 197.333007812 718.333007812 233.333007812 724 276 724 c 0
 324 724 363.333007812 716 394 700 c 0
 424.666992188 684 447.5 662.333007812 462.5 635 c 0
 477.5 607.666992188 485 577 485 543 c 0
 485 487.666992188 469.833007812 443.166992188 439.5 409.5 c 0
 409.166992188 375.833007812 363 346.333007812 301 321 c 0
 261.666992188 305 230.833007812 289.666992188 208.5 275 c 0
 186.166992188 260.333007812 170.166992188 244.5 160.5 227.5 c 0
 150.833007812 210.5 146 189.666992188 146 165 c 0
 146 124.333007812 158.666992188 95.3330078125 184 78 c 0
 209.333007812 60.6669921875 244.333007812 52 289 52 c 0
 337.666992188 52 378 61.1669921875 410 79.5 c 0
 442 97.8330078125 466.666992188 118.333007812 484 141 c 1
 489.333007812 137.666992188 493.833007812 132.833007812 497.5 126.5 c 0
 501.166992188 120.166992188 503 112 503 102 c 0
 503 85.3330078125 495.166992188 68.3330078125 479.5 51 c 0
 463.833007812 33.6669921875 439.833007812 19.1669921875 407.5 7.5 c 0
 375.166992188 -4.1669921875 334.333007812 -10 285 -10 c 0
EndSplineSet
EndChar

StartChar: uniE004
Encoding: 57348 57348 4
Width: 668
VWidth: 0
Flags: W
HStem: 0 50<38 120.057 246.943 516.057> 672 50<38 120.057 246.943 516.057>
VStem: 133 101<63.7476 658.252> 529 101<65.5857 656.383>
LayerCount: 2
Fore
SplineSet
38 50 m 1
 51 50 l 2
 73.6669921875 50 93 54.1669921875 109 62.5 c 0
 125 70.8330078125 133 90.6669921875 133 122 c 2
 133 600 l 2
 133 631.333984375 125 651.166992188 109 659.5 c 0
 93 667.833007812 73.6669921875 672 51 672 c 2
 38 672 l 1
 38 722 l 1
 38 722 361.216796875 722 530 722 c 0
 585.227539062 722 630 677.227539062 630 622 c 0
 630 484.274414062 630 237.654296875 630 99.953125 c 0
 630 44.75 585.25 0 530.046875 0 c 0
 361.27734375 0 38 0 38 0 c 1
 38 50 l 1
529 600 m 2
 529 631.333984375 521 651.166992188 505 659.5 c 0
 489 667.833007812 469.666992188 672 447 672 c 2
 316 672 l 2
 293.333007812 672 274 667.833007812 258 659.5 c 0
 242 651.166992188 234 631.333984375 234 600 c 2
 234 122 l 2
 234 90.6669921875 242 70.8330078125 258 62.5 c 0
 274 54.1669921875 293.333007812 50 316 50 c 2
 447 50 l 2
 469.666992188 50 489 54.1669921875 505 62.5 c 0
 521 70.8330078125 529 90.6669921875 529 122 c 2
 529 600 l 2
EndSplineSet
EndChar

StartChar: uniE005
Encoding: 57349 57349 5
Width: 800
VWidth: 0
Flags: HW
LayerCount: 2
Fore
SplineSet
327.5 672 m 1
 314.5 672 l 2
 301.987304688 672 290.390625 670.706054688 279.7109375 668.118164062 c 0
 271.321289062 666.061523438 263.583984375 663.189453125 256.5 659.5 c 0
 240.5 651.166992188 232.5 631.333007812 232.5 600 c 2
 232.5 416.5 l 1
 567.5 416.5 l 1
 567.5 600 l 2
 567.5 631.333007812 559.5 651.166992188 543.5 659.5 c 0
 536.416015625 663.189453125 528.678710938 666.061523438 520.2890625 668.118164062 c 0
 509.609375 670.706054688 498.012695312 672 485.5 672 c 2
 472.5 672 l 1
 472.5 714 l 1
 763.5 714 l 1
 763.5 672 l 1
 750.5 672 l 2
 728.5 672 709.333007812 668 693 660 c 0
 676.666992188 652 668.5 633.333007812 668.5 604 c 2
 668.5 216 l 2
 668.5 134.666992188 646.166992188 76.6669921875 601.5 42 c 0
 556.833007812 7.3330078125 495.166992188 -10 416.5 -10 c 0
 410.907226562 -10 405.407226562 -9.90625 400 -9.716796875 c 0
 394.592773438 -9.90625 389.092773438 -10 383.5 -10 c 0
 304.833007812 -10 243.166992188 7.3330078125 198.5 42 c 0
 153.833007812 76.6669921875 131.5 134.666992188 131.5 216 c 2
 131.5 604 l 2
 131.5 633.333007812 123.333007812 652 107 660 c 0
 90.6669921875 668 71.5 672 49.5 672 c 2
 36.5 672 l 1
 36.5 714 l 1
 327.5 714 l 1
 327.5 672 l 1
567.5 367.5 m 1
 232.5 367.5 l 1
 232.5 210 l 2
 232.5 200.59765625 232.912109375 191.637695312 233.735351562 183.12109375 c 0
 237.655273438 147.950195312 250.91015625 118.243164062 273.5 94 c 0
 280.047851562 86.9716796875 287.458007812 80.787109375 295.727539062 75.443359375 c 0
 320.657226562 60.6318359375 350.193359375 52.287109375 384.333984375 50.41015625 c 0
 389.424804688 50.14453125 394.647460938 50.0078125 400 50.0009765625 c 0
 405.352539062 50.0087890625 410.575195312 50.14453125 415.666015625 50.41015625 c 0
 449.806640625 52.287109375 479.342773438 60.6318359375 504.272460938 75.443359375 c 0
 512.541992188 80.787109375 519.952148438 86.9716796875 526.5 94 c 0
 549.08984375 118.243164062 562.344726562 147.950195312 566.264648438 183.12109375 c 0
 567.087890625 191.637695312 567.5 200.59765625 567.5 210 c 2
 567.5 367.5 l 1
EndSplineSet
EndChar

StartChar: uniE006
Encoding: 57350 57350 6
Width: 675
VWidth: 0
Flags: W
HStem: 0 42<0 63.0123 163.524 244 400 475.91 617.503 675>
LayerCount: 2
Fore
SplineSet
375 714 m 1
 591 95 l 2
 597.666992188 74.3330078125 606.333007812 60.3330078125 617 53 c 0
 627.666992188 45.6669921875 642.666992188 42 662 42 c 2
 675 42 l 1
 675 0 l 1
 400 0 l 1
 400 42 l 1
 423 42 l 2
 463 42 483 58 483 90 c 0
 483 95.3330078125 482.333007812 101 481 107 c 0
 479.666992188 113 477.666992188 119.666992188 475 127 c 2
 365 452 l 2
 355 481.333007812 346.333007812 510 339 538 c 0
 331.666992188 566 325.333007812 592 320 616 c 1
 315.333007812 592 309.333007812 566.333007812 302 539 c 0
 294.666992188 511.666992188 285.333007812 482.666992188 274 452 c 2
 164 134 l 2
 161.333007812 126 159.166992188 118.166992188 157.5 110.5 c 0
 155.833007812 102.833007812 155 96.3330078125 155 91 c 0
 155 58.3330078125 177 42 221 42 c 2
 244 42 l 1
 244 0 l 1
 0 0 l 1
 0 42 l 1
 19 42 l 2
 38.3330078125 42 53.1669921875 46.8330078125 63.5 56.5 c 0
 73.8330078125 66.1669921875 84.3330078125 87.3330078125 95 120 c 2
 302 714 l 1
 375 714 l 1
EndSplineSet
EndChar

StartChar: uniE007
Encoding: 57351 57351 7
Width: 742
VWidth: 0
Flags: HW
LayerCount: 2
Fore
SplineSet
371 -10 m 0
 300.333333333 -10 241.666666667 5.33333333333 195 36 c 0
 148.333333333 66.6666666667 113.5 109.666666667 90.5 165 c 0
 67.5 220.333333333 56 285 56 359 c 0
 56 433 67.5 497.333333333 90.5 552 c 0
 113.5 606.666666667 148.5 649.166666667 195.5 679.5 c 0
 242.5 709.833333333 301.333333333 725 372 725 c 0
 438.666666667 725 495.333333333 709.833333333 542 679.5 c 0
 588.666666667 649.166666667 624.166666667 606.5 648.5 551.5 c 0
 672.833333333 496.5 685 432 685 358 c 0
 685 284 672.833333333 219.5 648.5 164.5 c 0
 624.166666667 109.5 588.666666667 66.6666666667 542 36 c 0
 495.333333333 5.33333333333 438.333333333 -10 371 -10 c 0
371 44 m 0
 445.666666667 44 498.166666667 71.6666666667 528.5 127 c 0
 558.833333333 182.333333333 574 259.333333333 574 358 c 0
 574 456.666666667 558.833333333 533.5 528.5 588.5 c 0
 498.166666667 643.5 446 671 372 671 c 0
 297.333333333 671 244.5 643.5 213.5 588.5 c 0
 182.5 533.5 167 456.666666667 167 358 c 0
 167 259.333333333 182.5 182.333333333 213.5 127 c 0
 244.5 71.6666666667 297 44 371 44 c 0
EndSplineSet
EndChar

StartChar: uniE008
Encoding: 57352 57352 8
Width: 694
VWidth: 0
Flags: HW
LayerCount: 2
Fore
SplineSet
506.330078125 664 m 2
 381.888671875 664 l 1
 582.849609375 88.3466796875 l 2
 589.059570312 69.1279296875 597.102539062 56.1083984375 607.0390625 49.2890625 c 0
 616.974609375 42.46875 630.896484375 39.05859375 648.904296875 39.05859375 c 2
 661 39.05859375 l 1
 661 0 l 1
 575.715820312 0 490.432617188 0 405.149414062 0 c 1
 405.149414062 39.05859375 l 1
 426.546875 39.05859375 l 2
 463.805664062 39.05859375 482.369140625 53.9384765625 482.369140625 83.697265625 c 0
 482.369140625 88.6572265625 481.75 93.9267578125 480.508789062 99.5068359375 c 0
 479.266601562 105.086914062 477.411132812 111.287109375 474.92578125 118.106445312 c 2
 372.586914062 420.346679688 l 2
 363.271484375 447.625976562 355.2265625 474.286132812 348.396484375 500.325195312 c 0
 341.56640625 526.364257812 335.6875 550.54296875 330.71875 572.86328125 c 1
 326.372070312 550.54296875 320.802734375 526.673828125 313.97265625 501.254882812 c 0
 307.142578125 475.8359375 298.478515625 448.8671875 287.921875 420.346679688 c 2
 185.583007812 124.6171875 l 2
 183.09765625 117.176757812 181.087890625 109.892578125 179.53515625 102.762695312 c 0
 177.981445312 95.6328125 177.208007812 89.587890625 177.208007812 84.6279296875 c 0
 177.208007812 54.2490234375 197.62890625 39.0595703125 238.61328125 39.0595703125 c 2
 260.01171875 39.0595703125 l 1
 260.01171875 0.0009765625 l 1
 33 0.0009765625 l 1
 33 39.0595703125 l 1
 50.677734375 39.0595703125 l 2
 68.6875 39.0595703125 82.455078125 43.5537109375 92.080078125 52.5439453125 c 0
 101.703125 61.5341796875 111.451171875 81.2177734375 121.384765625 111.59765625 c 2
 313.97265625 664 l 1
 188.591796875 664 l 2
 156.852539062 664 134.9296875 655.833007812 122.666015625 639.5 c 0
 110.40234375 623.166992188 102.85546875 604 99.970703125 582 c 2
 94.56640625 539 l 1
 38.369140625 539 l 1
 43.771484375 714 l 1
 652.228515625 714 l 1
 657.630859375 539 l 1
 601.43359375 539 l 1
 596.029296875 582 l 2
 593.14453125 604 585.595703125 623.166992188 573.333984375 639.5 c 0
 561.072265625 655.833007812 538.787109375 664 506.330078125 664 c 2
EndSplineSet
EndChar

StartChar: uniE009
Encoding: 57353 57353 9
Width: 694
VWidth: 0
Flags: HW
LayerCount: 2
Fore
SplineSet
657.6328125 539 m 1
 601.43359375 539 l 1
 596.03125 582 l 2
 593.14453125 604 585.59765625 623.166992188 573.334960938 639.5 c 0
 561.073242188 655.833007812 538.790039062 664 506.329101562 664 c 2
 381.888671875 664 l 1
 582.848632812 88.3466796875 l 2
 589.05859375 69.1279296875 597.102539062 56.1083984375 607.0390625 49.2890625 c 0
 616.973632812 42.46875 630.897460938 39.05859375 648.905273438 39.05859375 c 2
 661 39.05859375 l 1
 661 0 l 1
 405.1484375 0 l 1
 405.1484375 39.05859375 l 1
 426.546875 39.05859375 l 2
 463.8046875 39.05859375 482.369140625 53.9384765625 482.369140625 83.697265625 c 0
 482.369140625 88.6572265625 481.75 93.9267578125 480.5078125 99.5068359375 c 0
 479.266601562 105.086914062 477.41015625 111.287109375 474.92578125 118.106445312 c 2
 372.584960938 420.346679688 l 2
 363.271484375 447.625976562 355.225585938 474.286132812 348.396484375 500.325195312 c 0
 341.565429688 526.364257812 335.685546875 550.54296875 330.71875 572.86328125 c 1
 326.37109375 550.54296875 320.801757812 526.673828125 313.971679688 501.254882812 c 0
 307.141601562 475.8359375 298.477539062 448.8671875 287.920898438 420.346679688 c 2
 185.581054688 124.616210938 l 2
 183.096679688 117.17578125 181.0859375 109.891601562 179.533203125 102.76171875 c 0
 177.981445312 95.6318359375 177.20703125 89.5869140625 177.20703125 84.626953125 c 0
 177.20703125 54.2490234375 197.626953125 39.05859375 238.612304688 39.05859375 c 2
 260.009765625 39.05859375 l 1
 260.009765625 0 l 1
 33 0 l 1
 33 39.05859375 l 1
 50.6767578125 39.05859375 l 2
 68.6845703125 39.05859375 82.4541015625 43.552734375 92.0791015625 52.54296875 c 0
 101.703125 61.533203125 111.44921875 81.216796875 121.384765625 111.596679688 c 2
 313.971679688 664 l 1
 188.590820312 664 l 2
 156.8515625 664 134.927734375 655.833007812 122.666015625 639.5 c 0
 110.403320312 623.166992188 102.85546875 604 99.9697265625 582 c 2
 94.56640625 539 l 1
 38.3681640625 539 l 1
 43.7724609375 714 l 1
 652.228515625 714 l 1
 657.6328125 539 l 1
347 750 m 0
 323.560546875 750 303.78515625 755.91015625 287.670898438 767.728515625 c 0
 271.556640625 779.547851562 263.5 799.80859375 263.5 828.51171875 c 0
 263.5 858.059570312 271.556640625 878.532226562 287.670898438 889.928710938 c 0
 303.78515625 901.326171875 323.560546875 907.024414062 347 907.024414062 c 0
 369.461914062 907.024414062 388.994140625 901.326171875 405.595703125 889.928710938 c 0
 422.19921875 878.532226562 430.5 858.059570312 430.5 828.51171875 c 0
 430.5 799.80859375 422.19921875 779.547851562 405.595703125 767.728515625 c 0
 388.994140625 755.91015625 369.461914062 750 347 750 c 0
EndSplineSet
EndChar

StartChar: uniE00A
Encoding: 57354 57354 10
Width: 660
VWidth: 0
Flags: W
HStem: -10 47<193.839 374.161> 384.765 46.4707<188.318 428> 670 50<117.339 428> 678 42<542.5 624>
VStem: 36 52<545 580> 39 101<98.1801 221> 159.945 21.7061<341.055 373.375 442.625 474.945> 428 101<98.0736 384.765 431.235 664.252>
LayerCount: 2
Fore
SplineSet
624 678 m 1xdb
 611 678 l 2xdb
 588.333007812 678 569 673.833007812 553 665.5 c 0
 537 657.166992188 529 637.333007812 529 606 c 2
 529 221 l 1
 528.998046875 219.595703125 l 2
 528.840820312 160.28515625 518.673828125 114.904296875 498.5 81.5 c 0
 478.166992188 47.8330078125 450.833007812 24.1669921875 416.5 10.5 c 0
 382.166992188 -3.1669921875 343.66796875 -10 301 -10 c 2
 267 -10 l 2
 224.333007812 -10 185.833007812 -3.1669921875 151.5 10.5 c 0
 117.166992188 24.1669921875 89.8330078125 47.8330078125 69.5 81.5 c 0
 49.1669921875 115.166992188 39 161 39 221 c 1
 140 221 l 1
 140 173.666015625 145.333007812 136.666992188 156 110 c 0
 166.666992188 83.3330078125 182 64.5 202 53.5 c 0
 222 42.5 246.333007812 37 275 37 c 2
 293 37 l 2
 321.666992188 37 346 42.5 366 53.5 c 0
 386 64.5 401.333007812 83.3330078125 412 110 c 0
 422.666992188 136.666992188 428 173.666992188 428 221 c 2
 428 384.764648438 l 1
 218.861328125 384.764648438 l 2
 202.66796875 384.764648438 192.41796875 381.083984375 188.111328125 373.721679688 c 0
 183.8046875 366.360351562 181.651367188 357.46484375 181.651367188 347.036132812 c 2
 181.651367188 341.0546875 l 1
 159.9453125 341.0546875 l 1
 159.9453125 474.9453125 l 1
 181.651367188 474.9453125 l 1
 181.651367188 468.963867188 l 2
 181.651367188 458.53515625 183.8046875 449.639648438 188.111328125 442.278320312 c 0
 192.41796875 434.916015625 202.66796875 431.235351562 218.861328125 431.235351562 c 2
 428 431.235351562 l 1
 428 670 l 1
 192 670 l 2xe7
 166 670 146.166992188 666.333007812 132.5 659 c 0
 118.833007812 651.666992188 109.166992188 641.333007812 103.5 628 c 0
 97.8330078125 614.666992188 94 598.666992188 92 580 c 2
 88 545 l 1
 36 545 l 1
 42 720 l 1
 624 720 l 1
 624 678 l 1xdb
EndSplineSet
EndChar

StartChar: uniE00B
Encoding: 57355 57355 11
Width: 615
VWidth: 0
Flags: W
HStem: 0 50<232 490.713> 0 42<36 118.343> 348.979 49.043<232 447.491> 664 50<232 461.963> 672 42<36 117.5>
VStem: 131 101<55.0645 348.979 398.021 658.252> 453.485 19.5146<302.85 336.96 410.04 444.15> 493 52<539 582> 527 52<132 175>
LayerCount: 2
Fore
SplineSet
232 348.978515625 m 1x37
 232 50 l 1
 425 50 l 2xb7
 456.333007812 50 479.166992188 58.1669921875 493.5 74.5 c 0
 507.833007812 90.8330078125 516.666992188 110 520 132 c 2
 527 175 l 1
 579 175 l 1
 572 0 l 1
 36 0 l 1
 36 42 l 1
 49 42 l 2
 71 42 90.1669921875 45.8330078125 106.5 53.5 c 0
 122.833007812 61.1669921875 131 79.6669921875 131 109 c 2
 131 600 l 2
 131 631.333007812 123 651.166992188 107 659.5 c 0
 91 667.833007812 71.6669921875 672 49 672 c 2
 36 672 l 1
 36 714 l 1
 540 714 l 1x6e80
 545 539 l 1
 493 539 l 1
 488 582 l 2
 485.333007812 604 477.5 623.166992188 464.5 639.5 c 0
 451.5 655.833007812 430 664 400 664 c 2
 232 664 l 1
 232 398.021484375 l 1
 420.030273438 398.021484375 l 2
 434.58984375 398.021484375 443.8046875 401.90625 447.676757812 409.674804688 c 0
 451.548828125 417.444335938 453.485351562 426.831054688 453.485351562 437.837890625 c 2
 453.485351562 444.150390625 l 1
 473 444.150390625 l 1
 473 302.849609375 l 1
 453.485351562 302.849609375 l 1
 453.485351562 309.162109375 l 2
 453.485351562 320.168945312 451.548828125 329.555664062 447.676757812 337.325195312 c 0
 443.8046875 345.09375 434.58984375 348.978515625 420.030273438 348.978515625 c 2
 232 348.978515625 l 1x37
EndSplineSet
EndChar

StartChar: uniE00C
Encoding: 57356 57356 12
Width: 586
VWidth: 0
Flags: HW
LayerCount: 2
Fore
SplineSet
107 539 m 1
 55 539 l 1
 60 714 l 1
 534 714 l 1
 534 673 l 1
 340.919921875 353.08203125 l 1
 400.954101562 318.421875 l 2
 414.29296875 310.719726562 424.743164062 309.319335938 432.2578125 314.142578125 c 0
 439.7734375 318.965820312 446.340820312 326.245117188 451.961914062 335.98046875 c 2
 455.184570312 341.564453125 l 1
 473.06640625 331.240234375 l 1
 400.909179688 206.259765625 l 1
 383.028320312 216.583007812 l 1
 386.250976562 222.166992188 l 2
 391.872070312 231.90234375 394.891601562 241.228515625 395.311523438 250.149414062 c 0
 395.731445312 259.069335938 389.29296875 267.418945312 375.954101562 275.120117188 c 2
 315.079101562 310.265625 l 1
 158 50 l 1
 410 50 l 2
 440 50 460.666992188 58.1669921875 472 74.5 c 0
 483.333007812 90.8330078125 490.333007812 110 493 132 c 2
 498 175 l 1
 550 175 l 1
 545 0 l 1
 36 0 l 1
 36 40 l 1
 228.469726562 360.26953125 l 1
 169.045898438 394.578125 l 2
 155.70703125 402.280273438 145.256835938 403.680664062 137.7421875 398.857421875 c 0
 130.2265625 394.034179688 123.659179688 386.754882812 118.038085938 377.01953125 c 2
 114.815429688 371.435546875 l 1
 96.93359375 381.759765625 l 1
 169.090820312 506.740234375 l 1
 186.971679688 496.416992188 l 1
 183.749023438 490.833007812 l 2
 178.127929688 481.09765625 175.108398438 471.771484375 174.688476562 462.850585938 c 0
 174.268554688 453.930664062 180.70703125 445.581054688 194.045898438 437.879882812 c 2
 254.228515625 403.1328125 l 1
 411 664 l 1
 194 664 l 2
 164.666015625 664 144.333007812 655.833007812 133 639.5 c 0
 121.666992188 623.166992188 114.666992188 604 112 582 c 2
 107 539 l 1
EndSplineSet
EndChar

StartChar: uniE00D
Encoding: 57357 57357 13
Width: 672
VWidth: 0
Flags: HW
LayerCount: 2
Fore
SplineSet
336.443359375 -10 m 0
 273.751953125 -10 221.706054688 1.8701171875 180.306640625 25.611328125 c 0
 138.907226562 49.3505859375 108.004882812 82.6396484375 87.6005859375 125.475585938 c 0
 67.1962890625 168.311523438 56.994140625 218.374023438 56.994140625 275.661132812 c 0
 56.994140625 332.948242188 67.1962890625 382.751953125 87.6005859375 425.072265625 c 0
 108.004882812 467.391601562 139.0546875 500.293945312 180.750976562 523.776367188 c 0
 222.446289062 547.258789062 274.639648438 559 337.330078125 559 c 0
 396.473632812 559 446.745117188 547.258789062 488.145507812 523.776367188 c 0
 529.544921875 500.293945312 561.0390625 467.262695312 582.625 424.684570312 c 0
 604.212890625 382.107421875 615.006835938 332.173828125 615.006835938 274.88671875 c 0
 615.006835938 217.599609375 604.212890625 167.666992188 582.625 125.088867188 c 0
 561.0390625 82.5107421875 529.544921875 49.3505859375 488.145507812 25.611328125 c 0
 446.745117188 1.8701171875 396.177734375 -10 336.443359375 -10 c 0
336.443359375 31.8037109375 m 0
 402.68359375 31.8037109375 449.258789062 53.2216796875 476.168945312 96.05859375 c 0
 503.079101562 138.89453125 516.533203125 198.50390625 516.533203125 274.88671875 c 0
 516.533203125 351.26953125 503.079101562 410.75 476.168945312 453.329101562 c 0
 449.258789062 495.907226562 402.979492188 517.196289062 337.330078125 517.196289062 c 0
 271.090820312 517.196289062 224.219726562 495.907226562 196.71875 453.329101562 c 0
 169.217773438 410.75 155.466796875 351.26953125 155.466796875 274.88671875 c 0
 155.466796875 198.50390625 169.217773438 138.89453125 196.71875 96.05859375 c 0
 224.219726562 53.2216796875 270.794921875 31.8037109375 336.443359375 31.8037109375 c 0
651 551.02734375 m 1
 577.556640625 551.02734375 l 1
 572.416992188 584.682617188 l 2
 569.670898438 601.903320312 562.491210938 616.905273438 550.826171875 629.689453125 c 0
 539.162109375 642.47265625 517.96484375 648.865234375 487.086914062 648.865234375 c 2
 487.087890625 648.865234375 l 1
 368.713867188 648.865234375 l 1
 304.106445312 648.865234375 l 1
 184.836914062 648.865234375 l 2
 154.642578125 648.864257812 133.790039062 642.471679688 122.125976562 629.689453125 c 0
 110.459960938 616.905273438 103.280273438 601.903320312 100.53515625 584.682617188 c 2
 95.3955078125 551.02734375 l 1
 21 551.02734375 l 1
 65.251953125 712 l 1
 607.69921875 712 l 1
 651 551.02734375 l 1
336.000976562 750 m 0
 313.705078125 750 294.893554688 755.91015625 279.564453125 767.728515625 c 0
 264.235351562 779.547851562 256.571289062 799.80859375 256.571289062 828.51171875 c 0
 256.571289062 858.059570312 264.235351562 878.532226562 279.564453125 889.928710938 c 0
 294.893554688 901.326171875 313.705078125 907.024414062 336.000976562 907.024414062 c 0
 357.369140625 907.024414062 375.94921875 901.326171875 391.7421875 889.928710938 c 0
 407.534179688 878.532226562 415.431640625 858.059570312 415.431640625 828.51171875 c 0
 415.431640625 799.80859375 407.534179688 779.547851562 391.7421875 767.728515625 c 0
 375.94921875 755.91015625 357.369140625 750 336.000976562 750 c 0
EndSplineSet
EndChar

StartChar: uniE00E
Encoding: 57358 57358 14
Width: 682
VWidth: 0
Flags: HW
LayerCount: 2
Fore
SplineSet
236.751953125 418 m 1
 395.248046875 418 l 2
 408.509765625 418 421.2265625 423.267578125 430.603515625 432.64453125 c 0
 439.98046875 442.021484375 445.248046875 454.739257812 445.248046875 468 c 0
 445.248046875 521.877929688 445.248046875 600 445.248046875 600 c 1
 445.248046875 600 445.248046875 600 445.248046875 600 c 1
 445.248046875 662.959960938 496.2890625 714 559.248046875 714 c 0
 602.373046875 714 641.248046875 714 641.248046875 714 c 1
 641.248046875 672 l 1
 628.248046875 672 l 2
 605.58203125 672 586.248046875 667.833007812 570.248046875 659.5 c 0
 554.248046875 651.166992188 546.248046875 631.333007812 546.248046875 600 c 2
 546.248046875 600 546.248046875 524.747070312 546.248046875 457.99609375 c 0
 546.248046875 431.209960938 535.609375 405.521484375 516.66796875 386.581054688 c 0
 497.7265625 367.640625 472.0390625 357 445.251953125 357 c 0
 445.251953125 357 445.251953125 357 445.251953125 357 c 1
 236.751953125 357 l 1
 236.751953125 114 l 2
 236.751953125 82.6669921875 244.751953125 62.8330078125 260.751953125 54.5 c 0
 276.751953125 46.1669921875 296.083984375 42 318.751953125 42 c 2
 331.751953125 42 l 1
 331.751953125 0 l 1
 40.751953125 0 l 1
 40.751953125 42 l 1
 53.751953125 42 l 2
 76.41796875 42 95.751953125 46.1669921875 111.751953125 54.5 c 0
 127.751953125 62.8330078125 135.751953125 82.6669921875 135.751953125 114 c 2
 135.751953125 600 l 2
 135.751953125 631.333007812 127.751953125 651.166992188 111.751953125 659.5 c 0
 95.751953125 667.833007812 76.41796875 672 53.751953125 672 c 2
 40.751953125 672 l 1
 40.751953125 714 l 1
 331.751953125 714 l 1
 331.751953125 672 l 1
 318.751953125 672 l 2
 296.083984375 672 276.751953125 667.833007812 260.751953125 659.5 c 0
 244.751953125 651.166992188 236.751953125 631.333007812 236.751953125 600 c 2
 236.751953125 418 l 1
EndSplineSet
EndChar

StartChar: uniE00F
Encoding: 57359 57359 15
Width: 700
VWidth: 0
Flags: HW
LayerCount: 2
Fore
SplineSet
38 0 m 1
 38 42 l 1
 51 42 l 2
 73 42 92.1666666667 45.8333333333 108.5 53.5 c 0
 124.833333333 61.1666666667 133 79.6666666667 133 109 c 2
 133 604 l 2
 133 633.333333333 124.833333333 652 108.5 660 c 0
 92.1666666667 668 73 672 51 672 c 2
 38 672 l 1
 38 714 l 1
 329 714 l 1
 329 672 l 1
 316 672 l 2
 293.333333333 672 274 667.833333333 258 659.5 c 0
 242 651.166666667 234 631.333333333 234 600 c 2
 234 382 l 1
 255.333333333 382 271.333333333 383 282 385 c 0
 292.666666667 387 301 390.333333333 307 395 c 0
 313 399.666666667 318.666666667 405.333333333 324 412 c 0
 332.666666667 422.666666667 343.166666667 440.333333333 355.5 465 c 0
 367.833333333 489.666666667 383.333333333 520.333333333 402 557 c 0
 427.333333333 607 453.666666667 646.666666667 481 676 c 0
 508.333333333 705.333333333 541.333333333 720 580 720 c 0
 609.333333333 720 630.166666667 714 642.5 702 c 0
 654.833333333 690 661 675 661 657 c 0
 661 637.666666667 656.166666667 622.333333333 646.5 611 c 0
 636.833333333 599.666666667 625.666666667 592.666666667 613 590 c 1
 610.333333333 604.666666667 604.333333333 617.666666667 595 629 c 0
 585.666666667 640.333333333 572 646 554 646 c 0
 534.666666667 646 516.166666667 636.333333333 498.5 617 c 0
 480.833333333 597.666666667 461.666666667 568 441 528 c 0
 420.333333333 486.666666667 403.833333333 454.833333333 391.5 432.5 c 0
 379.166666667 410.166666667 365.333333333 392 350 378 c 1
 385.333333333 376.666666667 411.5 368.666666667 428.5 354 c 0
 445.5 339.333333333 461.333333333 318.333333333 476 291 c 2
 570 122 l 2
 585.333333333 94 602.166666667 73.6666666667 620.5 61 c 0
 638.833333333 48.3333333333 659.333333333 42 682 42 c 2
 685 42 l 1
 685 0 l 1
 671 0 l 2
 628.333333333 0 594.833333333 2.5 570.5 7.5 c 0
 546.166666667 12.5 526.833333333 21.6666666667 512.5 35 c 0
 498.166666667 48.3333333333 484.333333333 68 471 94 c 2
 380 268 l 2
 369.333333333 288 358.833333333 302.833333333 348.5 312.5 c 0
 338.166666667 322.166666667 324.333333333 328.5 307 331.5 c 0
 289.666666667 334.5 265.333333333 336 234 336 c 1
 234 114 l 2
 234 82.6666666667 242 62.8333333333 258 54.5 c 0
 274 46.1666666667 293.333333333 42 316 42 c 2
 329 42 l 1
 329 0 l 1
 38 0 l 1
EndSplineSet
EndChar

StartChar: uniE010
Encoding: 57360 57360 16
Width: 604
VWidth: 0
Flags: HW
LayerCount: 2
Fore
SplineSet
565 0 m 1
 254 0 l 1
 254 42 l 1
 287 42 l 2
 309 42 328.166992188 45.8330078125 344.5 53.5 c 0
 360.833007812 61.1669921875 369 79.6669921875 369 109 c 2
 369 278 l 1
 306 278 l 2
 240 278 187.333007812 288.666992188 148 310 c 0
 108.666992188 331.333007812 80.5 359.333007812 63.5 394 c 0
 46.5 428.666992188 38 465.666992188 38 505 c 0
 38 569.666992188 58 620.666992188 98 658 c 0
 138 695.333007812 200 714 284 714 c 2
 565 714 l 1
 565 672 l 1
 552 672 l 2
 530 672 510.833007812 668 494.5 660 c 0
 478.166992188 652 470 633.333007812 470 604 c 2
 470 114 l 2
 470 82.6669921875 478 62.8330078125 494 54.5 c 0
 510 46.1669921875 529.333007812 42 552 42 c 2
 565 42 l 1
 565 0 l 1
369 325 m 1
 369 666 l 1
 301 666 l 2
 244.333007812 666 204.333007812 652.5 181 625.5 c 0
 157.666992188 598.5 146 557 146 501 c 0
 146 437.666992188 159.166992188 392.5 185.5 365.5 c 0
 211.833007812 338.5 255.333007812 325 316 325 c 2
 369 325 l 1
EndSplineSet
EndChar

StartChar: uniE011
Encoding: 57361 57361 17
Width: 656
VWidth: 0
Flags: HW
LayerCount: 2
Fore
SplineSet
-11 0 m 1
 -11 42 l 1
 -8 42 l 2
 13.3333333333 42 32 48.6666666667 48 62 c 0
 64 75.3333333333 80.3333333333 95.3333333333 97 122 c 2
 226 328 l 1
 204 336 182.833333333 347.5 162.5 362.5 c 0
 142.166666667 377.5 125.333333333 397.833333333 112 423.5 c 0
 98.6666666667 449.166666667 92 482 92 522 c 0
 92 588 114.666666667 636.5 160 667.5 c 0
 205.333333333 698.5 271 714 357 714 c 2
 618 714 l 1
 618 672 l 1
 605 672 l 2
 583 672 563.833333333 668 547.5 660 c 0
 531.166666667 652 523 633.333333333 523 604 c 2
 523 109 l 2
 523 79.6666666667 531.166666667 61.1666666667 547.5 53.5 c 0
 563.833333333 45.8333333333 583 42 605 42 c 2
 618 42 l 1
 618 0 l 1
 327 0 l 1
 327 42 l 1
 340 42 l 2
 362 42 381.166666667 45.8333333333 397.5 53.5 c 0
 413.833333333 61.1666666667 422 79.6666666667 422 109 c 2
 422 308 l 1
 323 308 l 1
 194 90 l 2
 179.333333333 65.3333333333 165 46.5 151 33.5 c 0
 137 20.5 118.833333333 11.6666666667 96.5 7 c 0
 74.1666666667 2.33333333333 43 0 3 0 c 2
 -11 0 l 1
350 355 m 2
 422 355 l 1
 422 666 l 1
 373 666 l 2
 311 666 266.5 653.666666667 239.5 629 c 0
 212.5 604.333333333 199 564.333333333 199 509 c 0
 199 461.666666667 211.333333333 424.166666667 236 396.5 c 0
 260.666666667 368.833333333 298.666666667 355 350 355 c 2
EndSplineSet
EndChar

StartChar: uniE012
Encoding: 57362 57362 18
Width: 613
VWidth: 0
Flags: HW
LayerCount: 2
Fore
SplineSet
150 714 m 1
 356 714 l 1
 356 714 356 631.333007812 356 600 c 2
 356 50 l 1
 453 50 l 2
 483 50 503.666992188 58.1669921875 515 74.5 c 0
 526.333007812 90.8330078125 533.333007812 110 536 132 c 2
 541 175 l 1
 593 175 l 1
 588 0 l 1
 25 0 l 1
 20 175 l 1
 72 175 l 1
 77 132 l 2
 79.6669921875 110 86.6669921875 90.8330078125 98 74.5 c 0
 109.333007812 58.1669921875 129.666992188 50 159 50 c 2
 255 50 l 1
 255 605 l 2
 255 634.333007812 246.833007812 652.833007812 230.5 660.5 c 0
 214.166992188 668.166992188 195 672 173 672 c 2
 150 672 l 1
 150 714 l 1
EndSplineSet
EndChar

StartChar: uniE013
Encoding: 57363 57363 19
Width: 708
VWidth: 0
Flags: HW
LayerCount: 2
Fore
SplineSet
524.7890625 50 m 2
 559.762695312 50 583.856445312 58.1669921875 597.068359375 74.5 c 0
 610.280273438 90.8330078125 618.44140625 110 621.549804688 132 c 2
 627.37890625 175 l 1
 688 175 l 1
 682.170898438 0 l 1
 25.8291015625 0 l 1
 20 175 l 1
 80.62109375 175 l 1
 86.4501953125 132 l 2
 89.55859375 110 97.7197265625 90.8330078125 110.931640625 74.5 c 0
 124.143554688 58.1669921875 147.84765625 50 182.044921875 50 c 2
 183.001953125 50 l 1
 183.001953125 605 l 2
 183.001953125 634.333007812 177.989257812 652.833007812 167.962890625 660.5 c 0
 157.936523438 668.166992188 146.171875 672 132.66796875 672 c 2
 118.549804688 672 l 1
 118.549804688 714 l 1
 245 714 l 1
 245 714 244.998046875 631.333007812 244.998046875 600 c 2
 244.998046875 50 l 1
 438.369140625 50 l 1
 438.369140625 605 l 2
 438.369140625 634.333007812 431.411132812 652.833007812 417.493164062 660.5 c 0
 403.576171875 668.166992188 387.244140625 672 368.498046875 672 c 2
 348.900390625 672 l 1
 348.900390625 714 l 1
 524.400390625 714 l 1
 524.400390625 714 524.430664062 631.333007812 524.430664062 600 c 2
 524.430664062 50 l 1
 524.7890625 50 l 2
EndSplineSet
EndChar

StartChar: uniE014
Encoding: 57364 57364 20
Width: 613
VWidth: 0
Flags: HW
LayerCount: 2
Fore
SplineSet
150 0 m 1
 150 42 l 1
 173 42 l 2
 195 42 214.166666667 45.8333333333 230.5 53.5 c 0
 246.833333333 61.1666666667 255 79.6666666667 255 109 c 2
 255 664 l 1
 159 664 l 2
 129.666666667 664 109.333333333 655.833333333 98 639.5 c 0
 86.6666666667 623.166666667 79.6666666667 604 77 582 c 2
 72 539 l 1
 20 539 l 1
 25 714 l 1
 588 714 l 1
 593 539 l 1
 541 539 l 1
 536 582 l 2
 533.333333333 604 526.333333333 623.166666667 515 639.5 c 0
 503.666666667 655.833333333 483 664 453 664 c 2
 356 664 l 1
 356 114 l 2
 356 82.6666666667 364 62.8333333333 380 54.5 c 0
 396 46.1666666667 415.333333333 42 438 42 c 2
 461 42 l 1
 461 0 l 1
 150 0 l 1
EndSplineSet
EndChar

StartChar: uniE015
Encoding: 57365 57365 21
Width: 708
VWidth: 0
Flags: HW
LayerCount: 2
Fore
SplineSet
524.7890625 664 m 2
 524.430664062 664 l 1
 524.430664062 114 l 2
 524.430664062 82.6669921875 531.247070312 62.8330078125 544.880859375 54.5 c 0
 558.513671875 46.1669921875 574.987304688 42 594.301757812 42 c 2
 613.900390625 42 l 1
 613.900390625 0 l 1
 348.900390625 0 l 1
 348.900390625 42 l 1
 368.498046875 42 l 2
 387.244140625 42 403.576171875 45.8330078125 417.493164062 53.5 c 0
 431.411132812 61.1669921875 438.369140625 79.6669921875 438.369140625 109 c 2
 438.369140625 664 l 1
 244.998046875 664 l 1
 244.998046875 114 l 2
 244.998046875 82.6669921875 249.909179688 62.8330078125 259.73046875 54.5 c 0
 269.55078125 46.1669921875 281.41796875 42 295.33203125 42 c 2
 309.450195312 42 l 1
 309.450195312 0 l 1
 118.549804688 0 l 1
 118.549804688 42 l 1
 132.66796875 42 l 2
 146.171875 42 157.936523438 45.8330078125 167.962890625 53.5 c 0
 177.989257812 61.1669921875 183.001953125 79.6669921875 183.001953125 109 c 2
 183.001953125 664 l 1
 182.044921875 664 l 2
 147.84765625 664 124.143554688 655.833007812 110.931640625 639.5 c 0
 97.7197265625 623.166992188 89.55859375 604 86.4501953125 582 c 2
 80.62109375 539 l 1
 20 539 l 1
 25.8291015625 714 l 1
 682.170898438 714 l 1
 688 539 l 1
 627.37890625 539 l 1
 621.549804688 582 l 2
 618.44140625 604 610.280273438 623.166992188 597.068359375 639.5 c 0
 583.856445312 655.833007812 559.762695312 664 524.7890625 664 c 2
EndSplineSet
EndChar

StartChar: uniE016
Encoding: 57366 57366 22
Width: 727
VWidth: 0
Flags: HW
LayerCount: 2
Fore
SplineSet
367 -10 m 0
 288.333007812 -10 226.666992188 7.3330078125 182 42 c 0
 137.333007812 76.6669921875 115 134.666992188 115 216 c 2
 115 604 l 2
 115 633.333007812 106.833007812 652 90.5 660 c 0
 74.1669921875 668 55 672 33 672 c 2
 20 672 l 1
 20 714 l 1
 311 714 l 1
 311 672 l 1
 298 672 l 2
 275.333007812 672 256 667.833007812 240 659.5 c 0
 224 651.166992188 216 631.333007812 216 600 c 2
 216 210 l 2
 216 152 231.666992188 110.833007812 263 86.5 c 0
 294.333007812 62.1669921875 334.333007812 50 383 50 c 0
 440.333007812 50 482.666992188 64.6669921875 510 94 c 0
 537.333007812 123.333007812 551 160.666992188 551 206 c 2
 551 604 l 2
 551 633.333007812 542.833007812 652 526.5 660 c 0
 510.166992188 668 491 672 469 672 c 2
 456 672 l 1
 456 714 l 1
 707 714 l 1
 707 672 l 1
 694 672 l 2
 671.333007812 672 652 667.833007812 636 659.5 c 0
 620 651.166992188 612 631.333007812 612 600 c 2
 612 204 l 2
 612 137.333007812 591 85 549 47 c 0
 507 9 446.333007812 -10 367 -10 c 0
EndSplineSet
EndChar

StartChar: uniE017
Encoding: 57367 57367 23
Width: 367
VWidth: 0
Flags: HW
LayerCount: 2
Fore
SplineSet
38 0 m 1
 38 42 l 1
 51 42 l 2
 73.6666666667 42 93 46.1666666667 109 54.5 c 0
 125 62.8333333333 133 82.6666666667 133 114 c 2
 133 600 l 2
 133 631.333333333 125 651.166666667 109 659.5 c 0
 93 667.833333333 73.6666666667 672 51 672 c 2
 38 672 l 1
 38 714 l 1
 329 714 l 1
 329 672 l 1
 316 672 l 2
 293.333333333 672 274 667.833333333 258 659.5 c 0
 242 651.166666667 234 631.333333333 234 600 c 2
 234 114 l 2
 234 82.6666666667 242 62.8333333333 258 54.5 c 0
 274 46.1666666667 293.333333333 42 316 42 c 2
 329 42 l 1
 329 0 l 1
 38 0 l 1
EndSplineSet
EndChar

StartChar: uniE018
Encoding: 57368 57368 24
Width: 367
VWidth: 0
Flags: HW
LayerCount: 2
Fore
SplineSet
329 542.118164062 m 1
 316 542.118164062 l 2
 293.333007812 542.118164062 274 538.755859375 258 532.034179688 c 0
 242 525.310546875 234 509.310546875 234 484.034179688 c 2
 234 91.9658203125 l 2
 234 66.689453125 242 50.689453125 258 43.9658203125 c 0
 274 37.244140625 293.333007812 33.8818359375 316 33.8818359375 c 2
 329 33.8818359375 l 1
 329 0 l 1
 38 0 l 1
 38 33.8818359375 l 1
 51 33.8818359375 l 2
 73.6669921875 33.8818359375 93 37.244140625 109 43.9658203125 c 0
 125 50.689453125 133 66.689453125 133 91.9658203125 c 2
 133 484.034179688 l 2
 133 509.310546875 125 525.310546875 109 532.034179688 c 0
 93 538.755859375 73.6669921875 542.118164062 51 542.118164062 c 2
 38 542.118164062 l 1
 38 576 l 1
 329 576 l 1
 329 542.118164062 l 1
183.5 625.98828125 m 0
 160.060546875 625.98828125 140.28515625 631.897460938 124.170898438 643.715820312 c 0
 108.056640625 655.53515625 100 675.796875 100 704.5 c 0
 100 734.047851562 108.056640625 754.51953125 124.170898438 765.916992188 c 0
 140.28515625 777.314453125 160.060546875 783.01171875 183.5 783.01171875 c 0
 205.961914062 783.01171875 225.494140625 777.314453125 242.095703125 765.916992188 c 0
 258.69921875 754.51953125 267 734.047851562 267 704.5 c 0
 267 675.796875 258.69921875 655.53515625 242.095703125 643.715820312 c 0
 225.494140625 631.897460938 205.961914062 625.98828125 183.5 625.98828125 c 0
EndSplineSet
EndChar

StartChar: uniE01C
Encoding: 57372 57372 25
Width: 367
VWidth: 0
Flags: HW
LayerCount: 2
Fore
SplineSet
329 542.118164062 m 1
 316 542.118164062 l 2
 293.33203125 542.1171875 274 538.755859375 258 532.034179688 c 0
 242 525.310546875 234 509.310546875 234 484.034179688 c 2
 234 91.9658203125 l 2
 234 66.689453125 242 50.689453125 258 43.9658203125 c 0
 274 37.244140625 293.33203125 33.8828125 316 33.8818359375 c 2
 329 33.8818359375 l 1
 329 0 l 1
 38 0 l 1
 38 33.8818359375 l 1
 51 33.8818359375 l 2
 73.6669921875 33.8818359375 93 37.244140625 109 43.9658203125 c 0
 125 50.689453125 133 66.689453125 133 91.9658203125 c 2
 133 484.034179688 l 2
 133 509.310546875 125 525.310546875 109 532.034179688 c 0
 93 538.755859375 73.6669921875 542.118164062 51 542.118164062 c 2
 38 542.118164062 l 1
 38 576 l 1
 329 576 l 1
 329 542.118164062 l 1
183.5 626 m 0
 136.166992188 626 101.333007812 639.5 79 666.5 c 0
 56.6669921875 693.5 44.8330078125 725.666992188 43.5 763 c 1
 89.5 763 l 1
 94.8330078125 739 105.666992188 721.666992188 122 711 c 0
 138.333007812 700.333007812 158.833007812 695 183.5 695 c 0
 208.166992188 695 228.666992188 700.333007812 245 711 c 0
 261.333007812 721.666992188 272.166992188 739 277.5 763 c 1
 323.5 763 l 1
 322.166992188 725.666992188 310.333007812 693.5 288 666.5 c 0
 265.666992188 639.5 230.833007812 626 183.5 626 c 0
EndSplineSet
EndChar

StartChar: uniE019
Encoding: 57369 57369 26
Width: 613
VWidth: 0
Flags: HW
LayerCount: 2
Fore
SplineSet
356 50 m 1
 453 50 l 2
 483 50 503.666992188 58.1669921875 515 74.5 c 0
 526.333007812 90.8330078125 533.333007812 110 536 132 c 2
 541 175 l 1
 593 175 l 1
 588 0 l 1
 25 0 l 1
 20 175 l 1
 72 175 l 1
 77 132 l 2
 79.6669921875 110 86.6669921875 90.8330078125 98 74.5 c 0
 109.333007812 58.1669921875 129.666992188 50 159 50 c 2
 255 50 l 1
 255 605 l 2
 255 634.333007812 246.833007812 652.833007812 230.5 660.5 c 0
 214.166992188 668.166992188 195.000976562 672 173 672 c 2
 150 672 l 1
 150 714 l 1
 356 714 l 1
 356 50 l 1
306.5 771 m 0
 259.166992188 771 224.333007812 784.5 202 811.5 c 0
 179.666992188 838.5 167.833007812 870.666992188 166.5 908 c 1
 212.5 908 l 1
 217.833007812 884 228.666992188 866.666992188 245 856 c 0
 261.333007812 845.333007812 281.833007812 840 306.5 840 c 0
 331.166992188 840 351.666992188 845.333007812 368 856 c 0
 384.333007812 866.666992188 395.166992188 884 400.5 908 c 1
 446.5 908 l 1
 445.166992188 870.666992188 433.333007812 838.5 411 811.5 c 0
 388.666992188 784.5 353.833007812 771 306.5 771 c 0
EndSplineSet
EndChar

StartChar: uniE01E
Encoding: 57374 57374 27
Width: 498
VWidth: 0
Flags: HW
LayerCount: 2
Fore
SplineSet
452.53515625 0 m 1
 40 0 l 1
 40 43.8388671875 l 1
 58.728515625 43.8388671875 77.669921875 43.4326171875 94.564453125 51.5693359375 c 0
 97.11328125 52.7978515625 99.533203125 54.27734375 101.515625 56.3466796875 c 0
 106.767578125 61.8369140625 108.890625 69.55859375 109.994140625 77.048828125 c 0
 110.669921875 81.6259765625 110.91796875 86.2529296875 110.9453125 90.892578125 c 0
 111.1875 212.12109375 110.9453125 333.349609375 110.9453125 454.578125 c 0
 110.916015625 469.27734375 109.412109375 485.731445312 97.416015625 492.938476562 c 0
 85.38671875 500.166015625 70.33984375 502.139648438 55.92578125 502.16015625 c 2
 40 502.16015625 l 1
 40 545.999023438 l 1
 269.765625 545.999023438 l 1
 269.765625 502.16015625 l 1
 251.15234375 502.16015625 232.474609375 502.426757812 215.48828125 494.705078125 c 0
 212.21875 493.217773438 209.185546875 491.30859375 206.818359375 488.483398438 c 0
 199.619140625 479.893554688 198.841796875 467.727539062 198.8203125 457.56640625 c 2
 198.8203125 49.81640625 l 1
 245.89453125 49.81640625 292.970703125 49.7314453125 340.044921875 49.8173828125 c 0
 352.935546875 49.884765625 365.8515625 53.0185546875 375.849609375 61.53125 c 0
 389.98046875 73.55859375 396.625 92.736328125 399.236328125 111.44140625 c 2
 399.26953125 111.678710938 l 1
 407.45703125 173.115234375 l 1
 458.16796875 173.115234375 l 1
 452.53515625 0 l 1
EndSplineSet
EndChar

StartChar: uniE01B
Encoding: 57371 57371 28
Width: 727
Flags: HW
LayerCount: 2
Fore
SplineSet
311 672 m 1
 298 672 l 2
 275.33203125 672 256 667.833007812 240 659.5 c 0
 224 651.166992188 216 631.333007812 216 600 c 2
 216 210 l 2
 216 152 231.666992188 110.833007812 263 86.5 c 0
 294.333007812 62.1669921875 334.333007812 50 383 50 c 0
 440.333007812 50 482.666992188 64.6669921875 510 94 c 0
 537.333007812 123.333007812 551 160.666992188 551 206 c 2
 551 604 l 2
 551 633.333007812 542.833007812 652 526.5 660 c 0
 510.166992188 668 491 672 469 672 c 2
 456 672 l 1
 456 714 l 1
 707 714 l 1
 707 672 l 1
 694 672 l 2
 671.33203125 672 652 667.833007812 636 659.5 c 0
 620 651.166992188 612 631.333007812 612 600 c 2
 612 204 l 2
 612 137.333007812 591 85 549 47 c 0
 507 9 446.333007812 -10 367 -10 c 0
 288.333007812 -10 226.666992188 7.3330078125 182 42 c 0
 137.333007812 76.6669921875 115 134.666992188 115 216 c 2
 115 604 l 2
 115 633.333007812 106.833007812 652 90.5 660 c 0
 74.1669921875 668 55 672 33 672 c 2
 20 672 l 1
 20 714 l 1
 311 714 l 1
 311 672 l 1
354 764 m 0
 306.666992188 764 271.833007812 777.5 249.5 804.5 c 0
 227.166992188 831.5 215.333007812 863.666992188 214 901 c 1
 260 901 l 1
 265.333007812 877 276.166992188 859.666992188 292.5 849 c 0
 308.833007812 838.333007812 329.333007812 833 354 833 c 0
 378.666992188 833 399.166992188 838.333007812 415.5 849 c 0
 431.833007812 859.666992188 442.666992188 877 448 901 c 1
 494 901 l 1
 492.666992188 863.666992188 480.833007812 831.5 458.5 804.5 c 0
 436.166992188 777.5 401.333007812 764 354 764 c 0
EndSplineSet
EndChar

StartChar: uniE01A
Encoding: 57370 57370 29
Width: 613
VWidth: 0
Flags: HW
LayerCount: 2
Fore
SplineSet
593 539 m 1
 541 539 l 1
 536 582 l 2
 533.333007812 604 526.333007812 623.166992188 515 639.5 c 0
 503.666992188 655.833007812 483 664 453 664 c 2
 356 664 l 1
 356 114 l 2
 356 82.6669921875 364 62.8330078125 380 54.5 c 0
 396 46.1669921875 415.333007812 42 438 42 c 2
 461 42 l 1
 461 0 l 1
 150 0 l 1
 150 42 l 1
 173 42 l 2
 195 42 214.166992188 45.8330078125 230.5 53.5 c 0
 246.833007812 61.1669921875 255 79.6669921875 255 109 c 2
 255 664 l 1
 159 664 l 2
 129.666015625 664 109.333007812 655.833007812 98 639.5 c 0
 86.6669921875 623.166992188 79.6669921875 604 77 582 c 2
 72 539 l 1
 20 539 l 1
 25 714 l 1
 588 714 l 1
 593 539 l 1
306.5 771 m 0
 259.166992188 771 224.333007812 784.5 202 811.5 c 0
 179.666992188 838.5 167.833007812 870.666992188 166.5 908 c 1
 212.5 908 l 1
 217.833007812 884 228.666992188 866.666992188 245 856 c 0
 261.333007812 845.333007812 281.833007812 840 306.5 840 c 0
 331.166992188 840 351.666992188 845.333007812 368 856 c 0
 384.333007812 866.666992188 395.166992188 884 400.5 908 c 1
 446.5 908 l 1
 445.166992188 870.666992188 433.333007812 838.5 411 811.5 c 0
 388.666992188 784.5 353.833007812 771 306.5 771 c 0
EndSplineSet
EndChar

StartChar: uniE01D
Encoding: 57373 57373 30
Width: 530
VWidth: 0
Flags: HW
LayerCount: 2
Fore
SplineSet
90.650390625 403.295898438 m 1
 40 403.295898438 l 1
 44.890625 546 l 1
 490.2265625 546 l 1
 490.2265625 502.3203125 l 1
 471.548828125 502.3203125 452.685546875 502.724609375 435.849609375 494.6171875 c 0
 433.310546875 493.393554688 430.8984375 491.919921875 428.923828125 489.857421875 c 0
 420.818359375 481.387695312 419.603515625 468.147460938 419.52734375 455.4375 c 0
 419.333984375 359.360351562 419.6484375 263.283203125 419.5234375 167.20703125 c 0
 419.388671875 127.032226562 413.96875 86.275390625 390.166015625 52.333984375 c 0
 374.310546875 29.7216796875 351.234375 12.53125 325.0234375 3.1845703125 c 0
 299.232421875 -6.01171875 271.646484375 -9.8251953125 244.3984375 -9.9267578125 c 0
 228.49609375 -9.947265625 212.578125 -10.328125 196.759765625 -9.1259765625 c 0
 172.40234375 -7.2763671875 148.2421875 -2.3046875 125.734375 7.595703125 c 0
 94.59765625 21.2939453125 69.62890625 47.666015625 56.47265625 80.5458984375 c 0
 45.51953125 107.911132812 42.5078125 137.970703125 42.44921875 167.735351562 c 2
 42.4453125 174.470703125 l 1
 130.013671875 174.470703125 l 2
 130.015625 171.861328125 130.015625 169.251953125 130.0234375 166.642578125 c 0
 130.150390625 137.600585938 131.87109375 107.717773438 144.265625 81.5380859375 c 0
 151.248046875 66.787109375 162.1796875 53.84375 177.587890625 46.6357421875 c 0
 191.86328125 39.955078125 207.93359375 37.548828125 223.80859375 37.4755859375 c 0
 231.126953125 37.46484375 238.447265625 37.2978515625 245.685546875 37.68359375 c 0
 266.921875 38.8115234375 288.642578125 44.1142578125 304.158203125 60.9365234375 c 0
 317.693359375 75.6103515625 324.265625 95.1982421875 327.748046875 114.140625 c 0
 331.021484375 131.95703125 331.9375 150.170898438 331.955078125 168.26953125 c 2
 331.955078125 496.36328125 l 1
 275.328125 496.36328125 218.705078125 496.42578125 162.078125 496.36328125 c 0
 144.271484375 496.303710938 125.36328125 494.514648438 112.1953125 482.677734375 c 0
 103.48046875 474.844726562 99.42578125 462.950195312 96.828125 451.051757812 c 0
 95.6875 445.82421875 94.87890625 440.529296875 94.294921875 435.212890625 c 2
 94.2578125 434.873046875 l 1
 90.650390625 403.295898438 l 1
EndSplineSet
EndChar

StartChar: uniE021
Encoding: 57377 57377 31
Width: 529
VWidth: 0
Flags: W
HStem: 0.000976562 49.1797<40 106.464 210.734 386.616> 495.734 49.1797<40 96.1335 212.287 388.153>
VStem: 110.052 86.7695<58.6239 486.29> 402.066 86.7676<57.6619 486.286>
LayerCount: 2
Fore
SplineSet
408.98828125 0.0009765625 m 2
 40 0.0009765625 l 1
 40 49.1796875 l 1
 58.494140625 49.1796875 77.197265625 48.779296875 93.8779296875 56.8125 c 0
 96.39453125 58.0244140625 98.78515625 59.4853515625 100.741210938 61.5283203125 c 0
 105.928710938 66.9482421875 108.024414062 74.5712890625 109.114257812 81.9658203125 c 0
 109.780273438 86.484375 110.024414062 91.0517578125 110.051757812 95.6318359375 c 0
 110.287109375 213.340820312 110.053710938 331.05078125 110.053710938 448.76171875 c 0
 110.024414062 463.271484375 108.5390625 479.514648438 96.6923828125 486.629882812 c 0
 84.81640625 493.764648438 69.9580078125 495.713867188 55.7265625 495.734375 c 2
 40 495.734375 l 1
 40 544.9140625 l 1
 163.068359375 544.9140625 286.137695312 545.108398438 409.20703125 544.9140625 c 0
 434.735351562 544.79296875 459.748046875 531.705078125 474.370117188 510.87109375 c 0
 483.682617188 497.600585938 488.75390625 481.388671875 488.833984375 465.254882812 c 0
 489.02734375 336.625976562 489.463867188 207.995117188 488.83203125 79.3662109375 c 0
 488.622070312 52.203125 473.698242188 25.7353515625 450.393554688 11.5693359375 c 0
 438.001953125 4.0361328125 423.443359375 0.021484375 408.98828125 0.0009765625 c 2
251.1484375 495.734375 m 0
 237.553710938 495.71484375 223.838867188 493.645507812 211.717773438 487.46875 c 0
 203.276367188 483.166992188 199.3125 473.27734375 197.791015625 463.154296875 c 0
 197.1015625 458.567382812 196.850585938 453.92578125 196.822265625 449.283203125 c 0
 196.586914062 331.573242188 196.821289062 213.86328125 196.821289062 96.1533203125 c 0
 196.850585938 81.640625 198.352539062 65.3896484375 210.181640625 58.2841796875 c 0
 221.908203125 51.2392578125 236.696289062 49.2412109375 250.76953125 49.1806640625 c 0
 283.219726562 49.1318359375 315.66796875 49.1318359375 348.1171875 49.1806640625 c 0
 361.647460938 49.23828125 375.393554688 51.4443359375 387.168945312 57.4462890625 c 0
 396.008789062 61.9501953125 399.747070312 72.6044921875 401.126953125 81.9658203125 c 0
 401.79296875 86.484375 402.037109375 91.0517578125 402.064453125 95.6318359375 c 0
 402.299804688 213.340820312 402.06640625 331.05078125 402.06640625 448.76171875 c 0
 402.037109375 463.21875 400.669921875 479.444335938 388.706054688 486.629882812 c 0
 376.9453125 493.694335938 362.19140625 495.671875 348.1171875 495.733398438 c 0
 315.793945312 495.780273438 283.471679688 495.734375 251.1484375 495.734375 c 0
EndSplineSet
EndChar

StartChar: uniE01F
Encoding: 57375 57375 32
Width: 492
Flags: HW
LayerCount: 2
Fore
SplineSet
283 -10 m 0
 238.333333333 -10 199 -0.666666666667 165 18 c 128
 131 36.6666666667 104.166666667 66.1666666667 84.5 106.5 c 128
 64.8333333333 146.833333333 55 199.666666667 55 265 c 0
 55 336.333333333 64.8333333333 392.5 84.5 433.5 c 128
 104.166666667 474.5 130.666666667 503.5 164 520.5 c 128
 197.333333333 537.5 235.333333333 546 278 546 c 0
 306 546 333.333333333 542.333333333 360 535 c 128
 386.666666667 527.666666667 408.666666667 516.333333333 426 501 c 128
 443.333333333 485.666666667 452 466.666666667 452 444 c 256
 452 421.333333333 444.5 405.166666667 429.5 395.5 c 128
 414.5 385.833333333 392.333333333 381 363 381 c 1
 363 412.333333333 357.166666667 439.333333333 345.5 462 c 128
 333.833333333 484.666666667 311.333333333 496 278 496 c 0
 252.666666667 496 230.5 489.333333333 211.5 476 c 128
 192.5 462.666666667 177.833333333 439.333333333 167.5 406 c 128
 157.166666667 372.666666667 152 326 152 266 c 0
 152 195.333333333 163.833333333 142.5 187.5 107.5 c 128
 211.166666667 72.5 249.666666667 55 303 55 c 0
 334.333333333 55 361.5 61.5 384.5 74.5 c 128
 407.5 87.5 424.666666667 104.333333333 436 125 c 1
 447.333333333 115.666666667 453 102.666666667 453 86 c 0
 453 70.6666666667 446.666666667 55.6666666667 434 41 c 128
 421.333333333 26.3333333333 402.5 14.1666666667 377.5 4.5 c 128
 352.5 -5.16666666667 321 -10 283 -10 c 0
EndSplineSet
EndChar

StartChar: uniE020
Encoding: 57376 57376 33
Width: 440
VWidth: 0
Flags: HW
LayerCount: 2
Fore
SplineSet
220.403320312 545.999023438 m 0
 258.36328125 545.850585938 297.05078125 539.021484375 328.709960938 515.877929688 c 0
 360.6015625 492.564453125 379.212890625 453.5859375 381.080078125 412.721679688 c 0
 382.801757812 375.029296875 373.856445312 335.79296875 350.318359375 306.59765625 c 0
 322.37109375 271.938476562 280.060546875 250.107421875 238.315429688 232.9765625 c 0
 213.157226562 222.59765625 187.9296875 211.470703125 166.732421875 195.6171875 c 0
 155.388671875 187.1328125 145.122070312 176.829101562 139.223632812 163.985351562 c 0
 131.640625 147.4765625 130.620117188 128.1953125 133.202148438 110.545898438 c 0
 135.7734375 92.96875 144.71484375 76.1865234375 161.197265625 66.576171875 c 0
 182.086914062 54.3955078125 207.513671875 51.5615234375 232.350585938 51.8583984375 c 0
 262.169921875 52.2119140625 292.041015625 57.85546875 317.721679688 73.1494140625 c 0
 335.627929688 83.8125 352.30078125 96.646484375 365.16796875 113.015625 c 2
 365.734375 113.744140625 l 1
 370.514648438 119.974609375 l 1
 376.96484375 115.903320312 l 2
 377.205078125 115.749023438 377.205078125 115.749023438 377.444335938 115.592773438 c 0
 392.927734375 105.256835938 397.9296875 83.3291015625 391.956054688 64.9931640625 c 0
 380.581054688 30.07421875 341.302734375 9.11328125 306.170898438 -0.6455078125 c 0
 275.467773438 -9.17578125 243.032226562 -10.845703125 211.146484375 -9.66015625 c 0
 167.296875 -8.0302734375 121.670898438 0.4111328125 89.9140625 30.787109375 c 0
 72.5302734375 47.4140625 59.9404296875 69.037109375 53.15234375 92.4326171875 c 0
 40.6884765625 135.392578125 42.7216796875 183.981445312 66.1767578125 220.641601562 c 0
 76.2060546875 236.31640625 90.162109375 249.107421875 105.127929688 260.385742188 c 0
 131.041015625 279.912109375 160.391601562 294.2265625 190.419921875 306.749023438 c 0
 213.30078125 316.337890625 236.143554688 326.473632812 256.734375 340.127929688 c 0
 268.875 348.1796875 279.8359375 358.162109375 286.708984375 370.888671875 c 0
 296.321289062 388.692382812 298.474609375 410.6484375 295.918945312 429.860351562 c 0
 293.838867188 445.493164062 287.506835938 460.5546875 277.09765625 472.620117188 c 0
 265.528320312 486.028320312 246.51953125 491.522460938 229.3203125 492.723632812 c 0
 208.869140625 494.15234375 187.260742188 491.994140625 171.412109375 479.014648438 c 0
 150.026367188 461.5 140.948242188 431.924804688 140.911132812 404.064453125 c 1
 132.810546875 395.985351562 l 1
 112.841796875 396.021484375 91.4169921875 400.692382812 77.7626953125 417.401367188 c 0
 65.7744140625 432.071289062 63.9306640625 453.708984375 69.9169921875 471.822265625 c 0
 81.0703125 505.563476562 117.037109375 527.599609375 149.999023438 537.26171875 c 0
 172.240234375 543.782226562 195.596679688 545.927734375 218.8046875 546 c 0
 219.337890625 546 219.870117188 546 220.403320312 545.999023438 c 0
EndSplineSet
EndChar

StartChar: uniE022
Encoding: 57378 57378 34
Width: 617
VWidth: 0
Flags: HW
LayerCount: 2
Fore
SplineSet
571.672851562 501.962890625 m 2
 557.948242188 501.943359375 544.135742188 499.756835938 531.828125 493.848632812 c 0
 522.544921875 489.393554688 518.377929688 478.18359375 517.130859375 468.77734375 c 0
 516.642578125 465.094726562 516.448242188 461.377929688 516.428710938 457.665039062 c 0
 516.219726562 360.176757812 516.532226562 262.6875 516.42578125 165.19921875 c 0
 516.305664062 127.541992188 510.18359375 88.609375 489.112304688 57.5 c 0
 472.303710938 32.6826171875 445.641601562 15.357421875 416.98828125 4.9013671875 c 0
 382.635742188 -7.634765625 345.30078125 -10.99609375 308.833007812 -9.7626953125 c 0
 255.837890625 -11.5546875 199.84375 -3.4677734375 157.208984375 27.8740234375 c 0
 135.192382812 44.05859375 119.56640625 67.6953125 111.154296875 93.943359375 c 0
 103.815429688 116.846679688 101.317382812 141.174804688 101.240234375 165.19921875 c 0
 101.134765625 262.688476562 101.451171875 360.176757812 101.237304688 457.665039062 c 0
 101.1640625 471.181640625 99.2568359375 486.37109375 87.4580078125 493.017578125 c 0
 75.2451171875 499.8984375 60.3427734375 501.94140625 45.9931640625 501.962890625 c 2
 30 501.962890625 l 1
 30 545.999023438 l 1
 260.71484375 545.999023438 l 1
 260.71484375 501.962890625 l 1
 242.112304688 501.962890625 223.342773438 502.581054688 205.947265625 494.20703125 c 0
 203.34765625 492.956054688 200.87109375 491.434570312 198.860351562 489.307617188 c 0
 190.654296875 480.627929688 189.501953125 467.091796875 189.475585938 454.166015625 c 2
 189.475585938 322.685546875 l 1
 428.190429688 322.685546875 l 1
 428.190429688 454.166015625 l 2
 428.16015625 468.930664062 426.650390625 485.458984375 414.603515625 492.69921875 c 0
 402.407226562 500.029296875 387.346679688 501.939453125 372.943359375 501.962890625 c 2
 356.951171875 501.962890625 l 1
 356.951171875 545.999023438 l 1
 587.666015625 545.999023438 l 1
 587.666015625 501.962890625 l 1
 571.672851562 501.962890625 l 2
189.475585938 273.393554688 m 1
 189.475585938 235.856445312 189.424804688 198.318359375 189.477539062 160.780273438 c 0
 189.502929688 154.452148438 189.735351562 148.190429688 190.369140625 141.893554688 c 0
 190.391601562 141.669921875 190.74609375 138.645507812 191.14453125 136.103515625 c 0
 195.501953125 108.268554688 209.944335938 81.443359375 233.76171875 65.8505859375 c 2
 233.93359375 65.73828125 l 2
 262.084960938 49.07421875 297.864257812 45.369140625 328.80078125 48.5478515625 c 0
 347.627929688 50.482421875 366.325195312 55.67578125 382.58203125 65.064453125 c 0
 400.102539062 75.18359375 412.930664062 93.2158203125 420.322265625 112.53125 c 0
 423.897460938 121.87109375 426.129882812 131.713867188 427.268554688 141.64453125 c 2
 427.268554688 141.64453125 427.478515625 143.815429688 427.59765625 145.359375 c 0
 428.008789062 150.708007812 428.182617188 156.065429688 428.190429688 161.428710938 c 2
 428.190429688 273.393554688 l 1
 348.619140625 273.393554688 269.046875 273.393554688 189.475585938 273.393554688 c 1
EndSplineSet
EndChar

StartChar: uniE023
Encoding: 57379 57379 35
Width: 526
VWidth: 0
Flags: HW
LayerCount: 2
Fore
SplineSet
198.234375 44.6416015625 m 1
 198.234375 -0 l 1
 -0 -0 l 1
 -0 44.6416015625 l 1
 19.4599609375 44.6416015625 40.78125 41.720703125 53.013671875 56.931640625 c 0
 58.701171875 64.005859375 62.4296875 72.544921875 65.892578125 81.130859375 c 0
 68.3525390625 87.2294921875 70.53515625 93.435546875 72.580078125 99.6845703125 c 2
 231.502929688 555.999023438 l 1
 253.009765625 555.999023438 274.516601562 555.999023438 296.022460938 555.999023438 c 1
 461.795898438 80.6533203125 l 2
 465.697265625 68.6103515625 471.158203125 56.171875 481.62109375 50.37109375 c 0
 489.974609375 45.73828125 499.979492188 44.6572265625 509.788085938 44.6416015625 c 2
 526.006835938 44.6416015625 l 1
 526.006835938 -0 l 1
 304.197265625 -0 l 1
 304.197265625 44.6416015625 l 1
 312.251953125 44.6416015625 320.306640625 44.6298828125 328.361328125 44.642578125 c 0
 342.25 44.7080078125 358.2109375 46.6181640625 364.5859375 60.4453125 c 0
 370.296875 72.8369140625 366.239257812 88.0283203125 361.588867188 100.885742188 c 0
 333.698242188 183.341796875 305.807617188 265.796875 277.916015625 348.251953125 c 0
 267.020507812 380.4609375 257.982421875 412.966796875 249.953125 446.03125 c 1
 242.342773438 413.373046875 232.646484375 380.735351562 221.0625 349.19140625 c 2
 220.680664062 348.15625 l 1
 137.060546875 106.2734375 l 2
 132.147460938 91.447265625 126.75390625 75.22265625 133.37109375 61.3564453125 c 0
 138.306640625 51.0126953125 151.116210938 46.4833984375 163.310546875 45.1884765625 c 0
 166.997070312 44.7978515625 170.704101562 44.6474609375 174.41015625 44.6416015625 c 2
 198.234375 44.6416015625 l 1
EndSplineSet
EndChar

StartChar: uniE026
Encoding: 57382 57382 36
Width: 548
VWidth: 0
Flags: HW
LayerCount: 2
Fore
SplineSet
512.677734375 403.51171875 m 1
 458.737304688 403.51171875 l 1
 454.013671875 441.141601562 l 2
 452.119140625 455.41796875 447.040039062 469.306640625 438.637695312 480.709960938 c 0
 428.969726562 493.83203125 409.981445312 497.057617188 393.120117188 497.090820312 c 2
 308.860351562 497.090820312 l 1
 456.243164062 74.3701171875 l 2
 459.796875 63.408203125 464.782226562 52.1904296875 474.01953125 46.9931640625 c 0
 481.62890625 42.712890625 490.783203125 41.7314453125 499.731445312 41.7177734375 c 2
 515 41.7177734375 l 1
 515 0 l 1
 311.245117188 0 l 1
 311.245117188 41.7177734375 l 1
 327.704101562 41.7177734375 345.216796875 39.1416015625 358.28515625 46.9033203125 c 0
 368.424804688 52.92578125 370.592773438 67.1318359375 367.573242188 80.10546875 c 0
 366.586914062 84.3427734375 365.251953125 88.490234375 363.766601562 92.5927734375 c 0
 338.25390625 168.03515625 312.743164062 243.475585938 287.23046875 318.916992188 c 0
 277.553710938 347.529296875 269.48046875 376.416015625 262.276367188 405.80859375 c 2
 262.072265625 406.647460938 l 1
 255.077148438 376.897460938 246.315429688 347.60546875 235.6953125 318.823242188 c 2
 159.211914062 97.52734375 l 2
 155.954101562 87.705078125 152.78515625 77.5166015625 153.341796875 67.3212890625 c 0
 153.677734375 61.16796875 155.74609375 54.841796875 160.374023438 50.5546875 c 0
 168.594726562 42.9404296875 181.163085938 41.7353515625 192.96484375 41.7177734375 c 2
 215.19140625 41.7177734375 l 1
 215.19140625 0 l 1
 33 0 l 1
 33 41.7177734375 l 1
 49.0224609375 41.7177734375 66.3134765625 39.3984375 78.0341796875 49.150390625 c 0
 85.4755859375 55.3408203125 89.3857421875 65.181640625 93.1337890625 74.4169921875 c 0
 95.3037109375 79.7626953125 97.2373046875 85.203125 99.0498046875 90.6806640625 c 2
 99.4111328125 91.7822265625 l 1
 240.53515625 497.090820312 l 1
 212.033203125 497.090820312 183.53125 497.1484375 155.029296875 497.08984375 c 0
 139.290039062 497.009765625 122.321289062 494.659179688 112.173828125 482.411132812 c 0
 102.702148438 470.974609375 97.470703125 456.125 95.482421875 441.141601562 c 2
 90.7587890625 403.51171875 l 1
 36.818359375 403.51171875 l 1
 41.2431640625 547 l 1
 508.252929688 547 l 1
 512.677734375 403.51171875 l 1
274 576.98828125 m 0
 250.560546875 576.98828125 230.78515625 582.897460938 214.670898438 594.715820312 c 0
 198.556640625 606.53515625 190.5 626.796875 190.5 655.5 c 0
 190.5 685.047851562 198.556640625 705.51953125 214.670898438 716.916992188 c 0
 230.78515625 728.314453125 250.560546875 734.01171875 274 734.01171875 c 0
 296.461914062 734.01171875 315.994140625 728.314453125 332.595703125 716.916992188 c 0
 349.19921875 705.51953125 357.5 685.047851562 357.5 655.5 c 0
 357.5 626.796875 349.19921875 606.53515625 332.595703125 594.715820312 c 0
 315.994140625 582.897460938 296.461914062 576.98828125 274 576.98828125 c 0
EndSplineSet
EndChar

StartChar: uniE024
Encoding: 57380 57380 37
Width: 577
Flags: W
HStem: -10 52<214.624 363.217> 493 53<212.777 364.547>
VStem: 55 97<127.105 410.991> 425 97<126.027 409.932>
LayerCount: 2
Fore
SplineSet
287 -10 m 0
 215 -10 158.333333333 13 117 59 c 0
 75.6666666667 105 55 175 55 269 c 0
 55 362.333333333 74.8333333333 431.833333333 114.5 477.5 c 0
 154.166666667 523.166666667 212.666666667 546 290 546 c 0
 362 546 418.666666667 523.166666667 460 477.5 c 0
 501.333333333 431.833333333 522 362.333333333 522 269 c 0
 522 175 502 105 462 59 c 0
 422 13 363.666666667 -10 287 -10 c 0
289 42 m 256
 339 42 374.166666667 61.1666666667 394.5 99.5 c 0
 414.833333333 137.833333333 425 194.333333333 425 269 c 256
 425 343.666666667 414.666666667 399.666666667 394 437 c 0
 373.333333333 474.333333333 338 493 288 493 c 256
 238 493 202.833333333 474.333333333 182.5 437 c 0
 162.166666667 399.666666667 152 343.666666667 152 269 c 256
 152 194.333333333 162.333333333 137.833333333 183 99.5 c 0
 203.666666667 61.1666666667 239 42 289 42 c 256
EndSplineSet
EndChar

StartChar: uniE02D
Encoding: 57389 57389 38
Width: 581
Flags: W
HStem: -245 42<262 363.5 469.213 546> -15 64<181.885 311.254> 477 64<182.318 313.454> 489 42<469.5 546>
VStem: 35 97<117.2 406.77> 377 79<-188.93 85 117.363 404.932>
LayerCount: 2
Fore
SplineSet
262 -245 m 1xdc
 262 -203 l 1
 295 -203 l 2
 317.666992188 -203 337 -198.833007812 353 -190.5 c 0
 369 -182.166992188 377 -162.333007812 377 -131 c 2
 377 -45 l 2
 377 -34.3330078125 377.166992188 -20.8330078125 377.5 -4.5 c 2
 378.5 44.5 l 2
 378.833007812 60.8330078125 379.666992188 74.3330078125 381 85 c 1
 377 85 l 1
 362.333007812 54.3330078125 343 30 319 12 c 0
 295 -6 263.333007812 -15 224 -15 c 0
 158 -15 122.5 7.1669921875 87.5 51.5 c 0
 52.5 95.8330078125 35 166 35 262 c 0
 35 358.666992188 52.5 429.333007812 87.5 474 c 0
 122.5 518.666992188 158 541 224 541 c 0xec
 262.666992188 541 294.166992188 532.833007812 318.5 516.5 c 0
 342.833007812 500.166992188 362.333007812 479 377 453 c 1
 383 453 l 1
 401 531 l 1
 546 531 l 1
 546 489 l 1
 538 489 l 2
 515.333007812 489 496 484.833007812 480 476.5 c 0
 464 468.166992188 456 448.333007812 456 417 c 2
 456 -135 l 2
 456 -164.333007812 464.166992188 -183 480.5 -191 c 0
 496.833007812 -199 516 -203 538 -203 c 2
 546 -203 l 1
 546 -245 l 1
 262 -245 l 1xdc
241 49 m 0
 293 49 328.666992188 66.5 348 101.5 c 0
 367.333007812 136.5 377 190 377 262 c 0
 377 331.333007812 367.333007812 384.5 348 421.5 c 0
 328.666992188 458.5 292.666992188 477 240 477 c 0
 196 477 179.5 458.5 160.5 421.5 c 0
 141.5 384.5 132 331 132 261 c 0
 132 190.333007812 141.5 137.333007812 160.5 102 c 0
 179.5 66.6669921875 196.333007812 49 241 49 c 0
EndSplineSet
EndChar

StartChar: uniE02E
Encoding: 57390 57390 39
Width: 563
VWidth: 0
Flags: W
HStem: -245 42<260.85 351.288 457.712 523.15> -10 33.3877<177.188 329.22> 257.012 44.3037<234.169 314.936> 487.107 33.8926<181.916 331.995> 489 41<451.342 523.15>
VStem: 39.8496 92.2793<59.9298 221.427> 55.9434 88.6797<338.265 458.382> 368.768 71.2773<-190.105 18.8926 48.312 457.233>
LayerCount: 2
Fore
SplineSet
523.150390625 489 m 1xeb
 498.5703125 489 l 2
 482.353515625 489 468.62109375 484.833007812 457.173828125 476.5 c 0
 445.7265625 468.166992188 440.044921875 433.333007812 440.044921875 402 c 2
 440.044921875 -136 l 2
 440.044921875 -167.333007812 445.7265625 -182.166992188 457.173828125 -190.5 c 0
 468.62109375 -198.833007812 482.353515625 -203 498.5703125 -203 c 2
 523.150390625 -203 l 1
 523.150390625 -245 l 1
 260.849609375 -245 l 1
 260.849609375 -203 l 1
 310.4296875 -203 l 2
 326.646484375 -203 340.37890625 -198.833007812 351.826171875 -190.5 c 0
 362.07421875 -183.0390625 367.701171875 -171.362304688 368.767578125 -145.466796875 c 2
 368.767578125 18.892578125 l 1
 355.5703125 10.33203125 338.326171875 3.376953125 317.03125 -1.9736328125 c 0
 295.736328125 -7.3251953125 269.79296875 -10 239.201171875 -10 c 0
 179.216796875 -10 126.828125 2.4130859375 92.037109375 27.240234375 c 0
 57.24609375 52.0673828125 39.849609375 94.0927734375 39.849609375 143.319335938 c 0xed
 39.849609375 181.415039062 52.447265625 219.772460938 77.640625 239.034179688 c 0
 102.833984375 258.295898438 141.126953125 272.849609375 182.515625 282.6953125 c 1
 182.515625 286.546875 l 1
 165.869140625 292.004882812 l 2
 154.771484375 295.642578125 126.724609375 301.743164062 111.728515625 310.303710938 c 0
 96.732421875 318.865234375 83.685546875 330.208007812 72.58984375 344.333984375 c 0
 61.4921875 358.459960938 55.943359375 380.795898438 55.943359375 401.341796875 c 0
 55.943359375 433.874023438 71.689453125 469.450195312 103.181640625 488.0703125 c 0
 134.673828125 506.690429688 196.611328125 521 258.99609375 521 c 0xf3
 295.587890625 521 328.578125 512.041015625 357.970703125 504.122070312 c 0
 361.97265625 503.043945312 365.609375 501.868164062 368.951171875 500.594726562 c 2
 374.94921875 530 l 1
 523.150390625 530 l 1
 523.150390625 489 l 1xeb
244.599609375 23.3876953125 m 0
 270.392578125 23.3876953125 294.236328125 27.240234375 316.130859375 34.9453125 c 0
 338.025390625 42.650390625 355.5703125 51.638671875 368.767578125 61.912109375 c 1
 368.767578125 388.5 l 2
 368.767578125 415.467773438 359.76953125 446.9765625 341.775390625 463.029296875 c 0
 323.779296875 479.081054688 296.486328125 487.107421875 259.896484375 487.107421875 c 0
 225.703125 487.107421875 189.611328125 479.40234375 171.615234375 463.9921875 c 0
 153.619140625 448.58203125 144.623046875 418.677734375 144.623046875 394.279296875 c 0xf3
 144.623046875 369.024414062 150.921875 343.584960938 163.517578125 327.9609375 c 0
 176.11328125 312.336914062 203.2109375 301.743164062 224.8046875 296.177734375 c 0
 230.802734375 297.462890625 238.900390625 298.639648438 249.09765625 299.709960938 c 0
 259.296875 300.780273438 267.994140625 301.315429688 275.19140625 301.315429688 c 0
 308.18359375 301.315429688 324.6796875 293.396484375 324.6796875 277.557617188 c 0
 324.6796875 270.709960938 321.529296875 265.573242188 315.232421875 262.149414062 c 0
 308.93359375 258.723632812 300.685546875 257.01171875 290.48828125 257.01171875 c 0
 279.69140625 257.01171875 269.4921875 257.974609375 259.896484375 259.901367188 c 0
 250.298828125 261.828125 241.599609375 263.861328125 233.802734375 266.000976562 c 0
 202.009765625 258.723632812 177.1171875 246.631835938 159.12109375 229.723632812 c 0
 141.126953125 212.81640625 132.12890625 177.348632812 132.12890625 142.676757812 c 0
 132.12890625 103.295898438 141.875 69.4033203125 161.37109375 50.9970703125 c 0
 180.865234375 32.5908203125 208.609375 23.3876953125 244.599609375 23.3876953125 c 0
EndSplineSet
EndChar

StartChar: uniE02F
Encoding: 57391 57391 40
Width: 506
VWidth: 0
Flags: HW
LayerCount: 2
Fore
SplineSet
469.275390625 0 m 1
 36.724609375 0 l 1
 32.63671875 143.224609375 l 1
 83.416015625 143.224609375 l 1
 87.787109375 105.604492188 l 2
 89.599609375 90.8544921875 94.2421875 75.9228515625 103.33984375 64.171875 c 0
 112.396484375 52.47265625 129.720703125 49.8447265625 142.853515625 49.81640625 c 2
 208.31640625 49.81640625 l 1
 208.31640625 186.147460938 208.611328125 322.478515625 208.314453125 458.809570312 c 0
 208.2421875 472.303710938 206.39453125 487.340820312 194.572265625 493.668945312 c 0
 182.2734375 500.25 167.484375 502.140625 153.296875 502.16015625 c 2
 129.90234375 502.16015625 l 1
 129.90234375 545.999023438 l 1
 296.189453125 545.999023438 l 1
 296.189453125 49.81640625 l 1
 318.4296875 49.81640625 340.66796875 49.771484375 362.908203125 49.818359375 c 0
 365.0546875 49.8291015625 367.19921875 49.8955078125 369.341796875 50.0380859375 c 0
 371.037109375 50.150390625 372.73046875 50.3095703125 374.416015625 50.5224609375 c 0
 375.65625 50.6796875 376.892578125 50.8671875 378.123046875 51.087890625 c 0
 379.09765625 51.2626953125 380.0703125 51.458984375 381.037109375 51.6796875 c 0
 390.40234375 53.814453125 399.20703125 58.6591796875 404.857421875 67.322265625 c 0
 412.29296875 78.7255859375 416.546875 92.0458984375 418.212890625 105.604492188 c 2
 422.5859375 143.224609375 l 1
 473.36328125 143.224609375 l 1
 469.275390625 0 l 1
EndSplineSet
EndChar

StartChar: uniE025
Encoding: 57381 57381 41
Width: 548
VWidth: 0
Flags: HW
LayerCount: 2
Fore
SplineSet
512.677734375 403.512695312 m 1
 458.737304688 403.512695312 l 1
 454.014648438 441.142578125 l 2
 452.119140625 455.41796875 447.0390625 469.307617188 438.637695312 480.709960938 c 0
 428.969726562 493.83203125 409.98046875 497.05859375 393.120117188 497.091796875 c 2
 308.860351562 497.091796875 l 1
 456.243164062 74.37109375 l 2
 459.796875 63.408203125 464.78125 52.19140625 474.020507812 46.9931640625 c 0
 481.62890625 42.712890625 490.783203125 41.7314453125 499.73046875 41.71875 c 2
 515 41.71875 l 1
 515 0.0009765625 l 1
 311.245117188 0.0009765625 l 1
 311.245117188 41.71875 l 1
 327.704101562 41.71875 345.216796875 39.142578125 358.28515625 46.904296875 c 0
 368.424804688 52.9267578125 370.592773438 67.1328125 367.572265625 80.10546875 c 0
 366.586914062 84.34375 365.251953125 88.490234375 363.766601562 92.59375 c 0
 338.25390625 168.03515625 312.743164062 243.4765625 287.23046875 318.91796875 c 0
 277.553710938 347.529296875 269.479492188 376.416992188 262.275390625 405.809570312 c 2
 262.071289062 406.646484375 l 1
 255.076171875 376.897460938 246.314453125 347.60546875 235.6953125 318.823242188 c 2
 159.211914062 97.52734375 l 2
 155.954101562 87.7060546875 152.78515625 77.517578125 153.341796875 67.3212890625 c 0
 153.677734375 61.1689453125 155.74609375 54.84375 160.374023438 50.5546875 c 0
 168.595703125 42.9404296875 181.1640625 41.734375 192.965820312 41.71875 c 2
 215.19140625 41.71875 l 1
 215.19140625 0.0009765625 l 1
 33 0.0009765625 l 1
 33 41.71875 l 1
 49.0224609375 41.71875 66.3125 39.3984375 78.0341796875 49.150390625 c 0
 85.4755859375 55.341796875 89.3857421875 65.1826171875 93.1337890625 74.4169921875 c 0
 95.3037109375 79.763671875 97.2373046875 85.2041015625 99.0498046875 90.6806640625 c 2
 99.4111328125 91.783203125 l 1
 240.53515625 497.091796875 l 1
 212.033203125 497.091796875 183.530273438 497.1484375 155.028320312 497.090820312 c 0
 139.290039062 497.009765625 122.321289062 494.659179688 112.174804688 482.411132812 c 0
 102.702148438 470.975585938 97.470703125 456.125 95.4814453125 441.142578125 c 2
 90.7587890625 403.512695312 l 1
 36.8173828125 403.512695312 l 1
 41.2431640625 547 l 1
 508.252929688 547 l 1
 512.677734375 403.512695312 l 1
EndSplineSet
EndChar

StartChar: uniE027
Encoding: 57383 57383 42
Width: 514
VWidth: 0
Flags: HW
LayerCount: 2
Fore
SplineSet
82.5380859375 403.295898438 m 1
 31.88671875 403.295898438 l 1
 36.7763671875 546 l 1
 482.11328125 546 l 1
 482.11328125 502.3203125 l 1
 463.434570312 502.3203125 444.572265625 502.724609375 427.737304688 494.6171875 c 0
 425.197265625 493.393554688 422.784179688 491.919921875 420.810546875 489.857421875 c 0
 412.704101562 481.387695312 411.490234375 468.147460938 411.413085938 455.4375 c 0
 411.221679688 359.360351562 411.536132812 263.283203125 411.41015625 167.20703125 c 0
 411.276367188 127.032226562 405.854492188 86.275390625 382.053710938 52.333984375 c 0
 366.181640625 29.7001953125 343.122070312 12.53125 316.91015625 3.1845703125 c 0
 291.126953125 -6.0078125 263.581054688 -9.8251953125 236.28515625 -9.9267578125 c 0
 220.381835938 -9.947265625 204.46484375 -10.328125 188.647460938 -9.1259765625 c 0
 164.2890625 -7.2763671875 140.129882812 -2.3046875 117.622070312 7.595703125 c 0
 86.484375 21.2939453125 61.5166015625 47.666015625 48.3583984375 80.5458984375 c 0
 37.4072265625 107.911132812 34.39453125 137.970703125 34.3359375 167.735351562 c 2
 34.3310546875 174.470703125 l 1
 121.901367188 174.470703125 l 2
 121.903320312 171.861328125 121.90234375 169.251953125 121.909179688 166.642578125 c 0
 122.038085938 137.600585938 123.756835938 107.717773438 136.151367188 81.5380859375 c 0
 143.134765625 66.787109375 154.067382812 53.84375 169.473632812 46.6357421875 c 0
 183.75 39.955078125 199.8203125 37.548828125 215.6953125 37.4755859375 c 0
 223.012695312 37.46484375 230.333984375 37.2978515625 237.573242188 37.68359375 c 0
 258.80859375 38.8115234375 280.530273438 44.1142578125 296.045898438 60.9365234375 c 0
 309.579101562 75.6103515625 316.15234375 95.1982421875 319.633789062 114.140625 c 0
 322.908203125 131.95703125 323.825195312 150.170898438 323.840820312 168.26953125 c 2
 323.840820312 283.9921875 l 1
 273.939453125 283.9921875 224.038085938 284.081054688 174.13671875 283.9921875 c 0
 167.784179688 283.958007812 160.12890625 283.833984375 157.009765625 279.078125 c 0
 153.895507812 274.329101562 152.9140625 268.005859375 152.905273438 262.1015625 c 2
 152.905273438 251.448242188 l 1
 124.346679688 251.448242188 l 1
 124.346679688 363.545898438 l 1
 152.905273438 363.545898438 l 1
 152.905273438 354.336914062 152.13671875 345.049804688 156.341796875 337.090820312 c 0
 159.208007812 331.665039062 167.009765625 331.014648438 174.401367188 331.001953125 c 2
 323.840820312 331.001953125 l 1
 323.840820312 496.36328125 l 1
 267.215820312 496.36328125 210.590820312 496.42578125 153.965820312 496.36328125 c 0
 136.073242188 496.303710938 116.999023438 494.4140625 103.920898438 482.532226562 c 0
 95.271484375 474.674804688 91.294921875 462.872070312 88.71484375 451.051757812 c 0
 87.57421875 445.82421875 86.765625 440.529296875 86.1826171875 435.212890625 c 2
 86.1455078125 434.873046875 l 1
 82.5380859375 403.295898438 l 1
EndSplineSet
EndChar

StartChar: uniE028
Encoding: 57384 57384 43
Width: 482
VWidth: 0
Flags: HW
LayerCount: 2
Fore
SplineSet
444.3828125 0 m 1
 31.8916015625 0 l 1
 31.8916015625 43.8388671875 l 1
 50.466796875 43.8388671875 69.1083984375 43.52734375 86.259765625 51 c 0
 89.486328125 52.40625 92.5107421875 54.228515625 94.875 57.001953125 c 0
 101.916015625 65.2607421875 102.780273438 76.9150390625 102.836914062 87.189453125 c 0
 103.104492188 209.65234375 102.837890625 332.115234375 102.837890625 454.578125 c 0
 102.80859375 469.27734375 101.3046875 485.731445312 89.3076171875 492.938476562 c 0
 77.2783203125 500.166015625 62.2314453125 502.139648438 47.818359375 502.16015625 c 2
 31.8916015625 502.16015625 l 1
 31.8916015625 545.999023438 l 1
 420.553710938 545.999023438 l 1
 424.643554688 402.774414062 l 1
 373.864257812 402.774414062 l 1
 369.4921875 440.393554688 l 2
 367.643554688 455.408203125 362.231445312 470.057617188 352.159179688 481.53125 c 0
 341.883789062 493.235351562 323.994140625 496.151367188 309.9453125 496.182617188 c 2
 190.711914062 496.182617188 l 1
 190.711914062 309.879882812 l 1
 235.521484375 309.879882812 280.330078125 309.788085938 325.139648438 309.880859375 c 0
 330.69921875 309.916015625 337.342773438 310.388671875 339.842773438 314.86328125 c 0
 342.866210938 320.279296875 343.654296875 326.997070312 343.671875 333.415039062 c 2
 343.671875 344.350585938 l 1
 370.692382812 344.350585938 l 1
 370.692382812 226.30859375 l 1
 343.671875 226.30859375 l 1
 343.671875 237.244140625 l 2
 343.654296875 243.606445312 342.881835938 250.3515625 339.842773438 255.794921875 c 0
 337.41796875 260.135742188 330.958984375 260.765625 324.905273438 260.778320312 c 2
 190.711914062 260.778320312 l 1
 190.711914062 49.81640625 l 1
 236.857421875 49.81640625 283.001953125 49.7255859375 329.147460938 49.818359375 c 0
 346.177734375 49.90625 363.953125 53.0654296875 375.564453125 66.5380859375 c 0
 385.138671875 77.6474609375 391.215820312 91.4609375 393.421875 105.837890625 c 2
 399.504882812 143.224609375 l 1
 450.108398438 143.224609375 l 1
 444.3828125 0 l 1
EndSplineSet
EndChar

StartChar: uniE029
Encoding: 57385 57385 44
Width: 462
VWidth: 0
Flags: HW
LayerCount: 2
Fore
SplineSet
97.544921875 402.774414062 m 1
 46.765625 402.774414062 l 1
 50.85546875 545.999023438 l 1
 417.11328125 545.999023438 l 1
 417.11328125 507.401367188 l 1
 275.3046875 272.290039062 l 1
 288.486328125 264.673828125 301.654296875 257.032226562 314.853515625 249.442382812 c 0
 320.099609375 246.456054688 326.576171875 243.340820312 331.26953125 246.045898438 c 0
 336.763671875 249.211914062 340.94140625 254.717773438 344.236328125 260.41015625 c 2
 349.751953125 269.970703125 l 1
 373.88671875 256.029296875 l 1
 313.775390625 151.850585938 l 1
 289.642578125 165.791992188 l 1
 294.59765625 174.379882812 300.27734375 182.775390625 301.04296875 192.545898438 c 0
 301.51171875 198.505859375 295.578125 203.038085938 289.744140625 206.424804688 c 2
 249.572265625 229.630859375 l 1
 141.115234375 49.81640625 l 1
 200.33984375 49.81640625 259.5625 49.6943359375 318.787109375 49.818359375 c 0
 320.93359375 49.8291015625 323.078125 49.8955078125 325.220703125 50.0380859375 c 0
 326.916015625 50.150390625 328.609375 50.3095703125 330.294921875 50.5224609375 c 0
 331.53515625 50.6796875 332.771484375 50.8671875 334.001953125 51.087890625 c 0
 334.9765625 51.2626953125 335.94921875 51.458984375 336.916015625 51.6796875 c 0
 346.28125 53.814453125 355.0859375 58.6591796875 360.736328125 67.322265625 c 0
 368.171875 78.7255859375 372.42578125 92.0458984375 374.091796875 105.604492188 c 2
 378.46484375 143.224609375 l 1
 429.2421875 143.224609375 l 1
 425.154296875 0 l 1
 32.7578125 0 l 1
 32.7578125 37.84375 l 1
 174.12109375 273.21875 l 1
 161.087890625 280.749023438 148.068359375 288.305664062 135.017578125 295.80859375 c 0
 129.84375 298.755859375 123.392578125 301.967773438 118.599609375 299.206054688 c 0
 113.103515625 296.038085938 108.90625 290.494140625 105.634765625 284.841796875 c 2
 100.1171875 275.28125 l 1
 75.984375 289.22265625 l 1
 136.095703125 393.401367188 l 1
 160.228515625 379.459960938 l 1
 155.291015625 370.901367188 149.59375 362.4765625 148.826171875 352.706054688 c 0
 148.359375 346.745117188 154.291015625 342.213867188 160.126953125 338.827148438 c 2
 199.771484375 315.924804688 l 1
 308.033203125 496.182617188 l 1
 257.517578125 496.182617188 207.001953125 496.291015625 156.48828125 496.180664062 c 0
 142.076171875 496.1015625 126.611328125 493.639648438 117.46875 481.827148438 c 0
 108.41015625 470.125976562 103.73828125 455.216796875 101.916015625 440.39453125 c 2
 97.544921875 402.774414062 l 1
EndSplineSet
EndChar

StartChar: uniE02A
Encoding: 57386 57386 45
Width: 582
VWidth: 0
Flags: HW
LayerCount: 2
Fore
SplineSet
290.958984375 -10 m 0
 239.401367188 -10 196.596679688 -1.25390625 162.548828125 16.2373046875 c 0
 128.500976562 33.7275390625 103.0859375 58.25390625 86.3046875 89.814453125 c 0
 69.525390625 121.374023438 61.1337890625 158.2578125 61.1337890625 200.46484375 c 0
 61.1337890625 242.671875 69.525390625 279.365234375 86.3046875 310.544921875 c 0
 103.0859375 341.724609375 128.622070312 365.965820312 162.9140625 383.266601562 c 0
 197.205078125 400.568359375 240.129882812 409.21875 291.689453125 409.21875 c 0
 340.329101562 409.21875 381.672851562 400.568359375 415.720703125 383.266601562 c 0
 449.76953125 365.965820312 475.669921875 341.629882812 493.423828125 310.259765625 c 0
 511.177734375 278.889648438 520.0546875 242.1015625 520.0546875 199.89453125 c 0
 520.0546875 157.686523438 511.177734375 120.899414062 493.423828125 89.529296875 c 0
 475.669921875 58.1591796875 449.76953125 33.7275390625 415.720703125 16.2373046875 c 0
 381.672851562 -1.25390625 340.0859375 -10 290.958984375 -10 c 0
290.958984375 20.7998046875 m 0
 345.435546875 20.7998046875 383.740234375 36.580078125 405.872070312 68.1396484375 c 0
 428.002929688 99.7001953125 439.069335938 143.618164062 439.069335938 199.89453125 c 0
 439.069335938 256.170898438 428.002929688 299.994140625 405.872070312 331.364257812 c 0
 383.740234375 362.734375 345.678710938 378.418945312 291.689453125 378.418945312 c 0
 237.211914062 378.418945312 198.6640625 362.734375 176.046875 331.364257812 c 0
 153.428710938 299.994140625 142.120117188 256.170898438 142.120117188 199.89453125 c 0
 142.120117188 143.618164062 153.428710938 99.7001953125 176.046875 68.1396484375 c 0
 198.6640625 36.580078125 236.96875 20.7998046875 290.958984375 20.7998046875 c 0
559.5 391.8671875 m 1
 496.8984375 391.8671875 l 1
 492.516601562 424.301757812 l 2
 490.176757812 440.897460938 484.056640625 455.35546875 474.114257812 467.674804688 c 0
 464.170898438 479.995117188 446.102539062 486.155273438 419.784179688 486.155273438 c 1
 419.784179688 486.155273438 l 1
 318.883789062 486.155273438 l 1
 263.814453125 486.155273438 l 1
 162.15234375 486.155273438 l 2
 136.375976562 486.140625 118.62890625 479.981445312 108.697265625 467.674804688 c 0
 98.75390625 455.35546875 92.6337890625 440.897460938 90.294921875 424.301757812 c 2
 85.9130859375 391.8671875 l 1
 22.5 391.8671875 l 1
 60.2197265625 547 l 1
 522.590820312 547 l 1
 559.5 391.8671875 l 1
291 577 m 0
 267.571289062 577 247.802734375 582.91015625 231.696289062 594.728515625 c 0
 215.588867188 606.547851562 207.53515625 626.80859375 207.53515625 655.51171875 c 0
 207.53515625 685.059570312 215.588867188 705.532226562 231.696289062 716.928710938 c 0
 247.802734375 728.326171875 267.571289062 734.024414062 291 734.024414062 c 0
 313.452148438 734.024414062 332.975585938 728.326171875 349.572265625 716.928710938 c 0
 366.166992188 705.532226562 374.46484375 685.059570312 374.46484375 655.51171875 c 0
 374.46484375 626.80859375 366.166992188 606.547851562 349.572265625 594.728515625 c 0
 332.975585938 582.91015625 313.452148438 577 291 577 c 0
EndSplineSet
EndChar

StartChar: uniE02B
Encoding: 57387 57387 46
Width: 635
Flags: HW
LayerCount: 2
Fore
SplineSet
33 0 m 1
 33 42 l 1
 41 42 l 2
 63.6669921875 42 83 46.1669921875 99 54.5 c 0
 115 62.8330078125 123 82.6669921875 123 114 c 2
 123 650 l 6
 123 679.333007812 114.833007812 698 98.5 706 c 4
 82.1669921875 714 63 718 41 718 c 6
 33 718 l 5
 33 760 l 5
 202 760 l 5
 202 540 l 2
 202 528 201.666992188 515.333007812 201 502 c 0
 200.333007812 488.666992188 199.666992188 477.5 199 468.5 c 2
 198 455 l 1
 203 455 l 1
 233 515.666992188 282 546 350 546 c 0
 407.333007812 546 436.166992188 530.5 466.5 499.5 c 0
 496.833007812 468.5 512 418.666992188 512 350 c 2
 512 114 l 2
 512 82.6669921875 519.166992188 62.8330078125 533.5 54.5 c 0
 547.833007812 46.1669921875 566.333007812 42 589 42 c 2
 592 42 l 1
 592 0 l 1
 433 0 l 1
 433 345 l 2
 433 388.333007812 424.833007812 422 408.5 446 c 0
 392.166992188 470 363.666992188 482 323 482 c 0
 281.666992188 482 251.166992188 467.333007812 231.5 438 c 0
 211.833007812 408.666992188 202 369.333007812 202 320 c 2
 202 109 l 2
 202 79.6669921875 210.166992188 61.1669921875 226.5 53.5 c 0
 242.833007812 45.8330078125 262 42 284 42 c 2
 287 42 l 1
 287 0 l 1
 33 0 l 1
EndSplineSet
EndChar

StartChar: uniE031
Encoding: 57393 57393 47
Width: 506
VWidth: 0
Flags: HW
LayerCount: 2
Fore
SplineSet
83.7412109375 402.774414062 m 1
 33 402.774414062 l 1
 37.0869140625 546 l 1
 469.313476562 546 l 1
 470.67578125 498.2578125 472.037109375 450.516601562 473.400390625 402.774414062 c 1
 422.658203125 402.774414062 l 1
 418.290039062 440.395507812 l 2
 416.559570312 454.497070312 412.012695312 468.325195312 404.049804688 480.01953125 c 0
 395.028320312 493.266601562 375.970703125 496.153320312 362.51953125 496.182617188 c 2
 296.358398438 496.182617188 l 1
 296.358398438 91.4208984375 l 2
 296.375976562 82.4853515625 297.05078125 73.4462890625 300.32421875 65.2177734375 c 0
 302.62890625 59.42578125 306.702148438 54.474609375 312.727539062 51.5703125 c 0
 324.61328125 45.8408203125 338.081054688 43.859375 351.336914062 43.8388671875 c 2
 374.713867188 43.8388671875 l 1
 374.713867188 0.001953125 l 1
 130.193359375 0.001953125 l 1
 130.193359375 43.8388671875 l 1
 151.239257812 43.8388671875 172.66015625 42.57421875 191.983398438 51.0009765625 c 0
 195.20703125 52.40625 198.229492188 54.228515625 200.592773438 57.001953125 c 0
 207.754882812 65.4091796875 208.52734375 77.48828125 208.549804688 87.685546875 c 2
 208.549804688 496.182617188 l 1
 186.579101562 496.182617188 164.609375 496.229492188 142.639648438 496.181640625 c 0
 128.153320312 496.1015625 112.732421875 493.6875 103.563476562 481.71484375 c 0
 94.6279296875 470.046875 89.9296875 455.216796875 88.1103515625 440.395507812 c 2
 83.7412109375 402.774414062 l 1
EndSplineSet
EndChar

StartChar: uniE032
Encoding: 57394 57394 48
Width: 578
Flags: HW
LayerCount: 2
Fore
SplineSet
545.673828125 402.774414062 m 1
 488.42578125 402.774414062 l 1
 483.3359375 440.2734375 l 2
 481.1875 455.258789062 475.6171875 469.907226562 465.354492188 481.348632812 c 0
 455.482421875 492.354492188 439.237304688 495.3984375 423.140625 496.064453125 c 2
 423.083984375 496.06640625 l 1
 423.083984375 361.006835938 422.84765625 225.947265625 423.084960938 90.888671875 c 0
 423.142578125 79.658203125 423.850585938 67.62890625 429.483398438 58.41796875 c 0
 432.236328125 53.91796875 437.022460938 51.0126953125 441.881835938 48.916015625 c 0
 450.415039062 45.234375 459.8125 43.85546875 469.129882812 43.8388671875 c 2
 490.022460938 43.8388671875 l 1
 490.022460938 0 l 1
 279.287109375 0 l 1
 279.287109375 43.8388671875 l 1
 297.6015625 43.8388671875 316.1015625 42.5791015625 332.279296875 50.8359375 c 0
 333.998046875 51.712890625 335.668945312 52.703125 337.067382812 54.0185546875 c 0
 343.830078125 60.375 345.423828125 70.869140625 346.022460938 80.68359375 c 0
 346.165039062 83.0146484375 346.220703125 85.3486328125 346.225585938 87.6845703125 c 2
 346.225585938 496.182617188 l 1
 214.01953125 496.182617188 l 1
 214.01953125 361.08203125 213.853515625 225.982421875 214.01953125 90.8828125 c 0
 214.063476562 79.3271484375 214.201171875 67.3173828125 219.056640625 57.03125 c 0
 223.395507812 47.83984375 235.380859375 43.86328125 245.450195312 43.8388671875 c 2
 262.240234375 43.8388671875 l 1
 262.240234375 0 l 1
 106.944335938 0 l 1
 106.944335938 43.8388671875 l 1
 120.659179688 43.8388671875 134.420898438 42.490234375 145.604492188 50.5888671875 c 0
 150.911132812 54.4306640625 152.688476562 61.58203125 153.797851562 68.2099609375 c 0
 154.872070312 74.626953125 155.157226562 81.1669921875 155.165039062 87.6826171875 c 2
 155.165039062 496.078125 l 1
 139.770507812 495.491210938 123.508789062 492.84765625 113.219726562 481.23828125 c 0
 103.219726562 469.955078125 97.4775390625 455.190429688 95.337890625 440.2734375 c 2
 90.248046875 402.774414062 l 1
 33 402.774414062 l 1
 37.77734375 545.999023438 l 1
 540.896484375 545.999023438 l 1
 545.673828125 402.774414062 l 1
EndSplineSet
EndChar

StartChar: uniE033
Encoding: 57395 57395 49
Width: 587
VWidth: 0
Flags: HW
LayerCount: 2
Fore
SplineSet
260.836914062 501.811523438 m 1
 242.060546875 501.811523438 223.051757812 502.249023438 206.017578125 494.046875 c 0
 203.419921875 492.795898438 200.951171875 491.274414062 198.94921875 489.158203125 c 0
 190.87109375 480.620117188 189.638671875 467.365234375 189.561523438 454.553710938 c 0
 189.365234375 356.649414062 189.45703125 258.743164062 189.560546875 160.838867188 c 0
 189.6640625 128.21484375 196.155273438 93.4794921875 223.455078125 72.783203125 c 0
 249.409179688 53.1064453125 284.301757812 46.505859375 316.805664062 47.650390625 c 0
 349.088867188 48.7880859375 381.954101562 56.4541015625 404.514648438 84.5439453125 c 0
 420.915039062 104.96484375 428.306640625 131.748046875 428.400390625 157.94921875 c 0
 428.514648438 257.806640625 428.61328125 357.6640625 428.399414062 457.522460938 c 0
 428.32421875 471.036132812 426.418945312 486.221679688 414.612304688 492.868164062 c 0
 402.392578125 499.747070312 387.482421875 501.790039062 373.125 501.811523438 c 2
 357.124023438 501.811523438 l 1
 357.124023438 545.83984375 l 1
 557.94921875 545.83984375 l 1
 557.94921875 501.811523438 l 1
 539.118164062 501.811523438 520.102539062 502.21875 503.130859375 494.046875 c 0
 500.569335938 492.813476562 498.137695312 491.327148438 496.147460938 489.249023438 c 0
 487.975585938 480.711914062 486.750976562 467.365234375 486.673828125 454.553710938 c 0
 486.474609375 355.112304688 486.795898438 255.671875 486.671875 156.23046875 c 0
 486.518554688 114.639648438 474.484375 72.455078125 444.754882812 41.5478515625 c 0
 430.173828125 26.390625 412.2265625 14.6005859375 392.696289062 6.5341796875 c 0
 353.88671875 -9.494140625 310.696289062 -12.0302734375 270.065429688 -9.111328125 c 0
 237.727539062 -6.7841796875 205.588867188 0.08984375 176.846679688 15.494140625 c 0
 152.065429688 28.771484375 131.220703125 48.447265625 118.682617188 74.8447265625 c 0
 105.28125 103.0625 101.374023438 135.032226562 101.27734375 165.109375 c 0
 101.172851562 262.581054688 101.48828125 360.05078125 101.275390625 457.522460938 c 0
 101.202148438 471.03515625 99.2939453125 486.22265625 87.48828125 492.868164062 c 0
 75.26953125 499.747070312 60.3583984375 501.790039062 46.0009765625 501.811523438 c 2
 30 501.811523438 l 1
 30 545.83984375 l 1
 260.836914062 545.83984375 l 1
 260.836914062 531.1640625 260.836914062 516.487304688 260.836914062 501.811523438 c 1
EndSplineSet
EndChar

StartChar: uniE034
Encoding: 57396 57396 50
Width: 310
Flags: HW
LayerCount: 2
Fore
SplineSet
20.5 0 m 1
 20.5 42 l 1
 33.5 42 l 2
 56.1669921875 42 75.5 46.1669921875 91.5 54.5 c 0
 107.5 62.8330078125 115.5 82.6669921875 115.5 114 c 2
 115.5 650 l 2
 115.5 679.333007812 107.333007812 698 91 706 c 0
 74.6669921875 714 55.5 718 33.5 718 c 2
 20.5 718 l 1
 20.5 760 l 1
 194.5 760 l 1
 194.5 114 l 2
 194.5 82.6669921875 202.5 62.8330078125 218.5 54.5 c 0
 234.5 46.1669921875 253.833007812 42 276.5 42 c 2
 289.5 42 l 1
 289.5 0 l 1
 20.5 0 l 1
EndSplineSet
EndChar

StartChar: uniE035
Encoding: 57397 57397 51
Width: 247
VWidth: 0
Flags: HW
LayerCount: 2
Fore
SplineSet
229.120117188 0.0029296875 m 1
 17.8798828125 0.0029296875 l 1
 17.8798828125 41.2431640625 l 1
 35.5126953125 41.2431640625 53.3193359375 40.861328125 69.212890625 48.5166015625 c 0
 71.6103515625 49.6708984375 73.888671875 51.0634765625 75.751953125 53.0107421875 c 0
 83.404296875 61.0068359375 84.55078125 73.5087890625 84.623046875 85.509765625 c 0
 84.875 211.4296875 84.8974609375 337.3515625 84.623046875 463.271484375 c 0
 84.5537109375 475.9296875 82.767578125 490.155273438 71.712890625 496.380859375 c 0
 60.2705078125 502.82421875 46.3076171875 504.737304688 32.86328125 504.7578125 c 2
 17.8798828125 504.7578125 l 1
 17.8798828125 546 l 1
 162.375976562 546 l 1
 162.375976562 392.668945312 162.375976562 239.337890625 162.375976562 86.0068359375 c 0
 162.403320312 72.1787109375 163.818359375 56.69921875 175.104492188 49.9189453125 c 0
 186.430664062 43.11328125 200.633789062 41.263671875 214.13671875 41.2431640625 c 2
 229.120117188 41.2431640625 l 1
 229.120117188 0.0029296875 l 1
EndSplineSet
EndChar

StartChar: uniE036
Encoding: 57398 57398 52
Width: 506
VWidth: 0
Flags: HW
LayerCount: 2
Fore
SplineSet
469.455078125 0 m 1
 36.908203125 0 l 1
 33 136.8203125 l 1
 39.220703125 143.224609375 l 1
 83.59765625 143.224609375 l 1
 87.96875 105.60546875 l 2
 89.78125 90.85546875 94.423828125 75.923828125 103.521484375 64.171875 c 0
 112.578125 52.47265625 129.90234375 49.845703125 143.03515625 49.818359375 c 2
 208.498046875 49.818359375 l 1
 208.498046875 186.1484375 208.79296875 322.478515625 208.49609375 458.809570312 c 0
 208.421875 472.303710938 206.576171875 487.340820312 194.75390625 493.668945312 c 0
 182.455078125 500.25 167.666015625 502.140625 153.478515625 502.161132812 c 2
 136.306640625 502.161132812 l 1
 130.08203125 508.387695312 l 1
 130.08203125 539.7734375 l 1
 136.306640625 546 l 1
 296.37109375 546 l 1
 296.37109375 49.818359375 l 1
 318.611328125 49.818359375 340.849609375 49.7724609375 363.08984375 49.8193359375 c 0
 365.236328125 49.830078125 367.380859375 49.8974609375 369.5234375 50.0390625 c 0
 371.21875 50.1513671875 372.91015625 50.3095703125 374.595703125 50.5244140625 c 0
 375.837890625 50.6806640625 377.07421875 50.8681640625 378.3046875 51.0888671875 c 0
 379.28125 51.263671875 380.251953125 51.4599609375 381.216796875 51.6796875 c 0
 390.583984375 53.8154296875 399.388671875 58.66015625 405.0390625 67.3232421875 c 0
 412.47265625 78.7255859375 416.73046875 92.0458984375 418.39453125 105.60546875 c 2
 422.765625 143.224609375 l 1
 467.140625 143.224609375 l 1
 473.36328125 136.8203125 l 1
 469.455078125 0 l 1
357.015625 701.059570312 m 0
 355.908203125 674.216796875 346.640625 647.594726562 328.208984375 627.567382812 c 0
 320.1875 618.8515625 310.044921875 612.198242188 299.076171875 607.853515625 c 0
 278.701171875 599.783203125 255.7734375 598.737304688 235.197265625 601.125 c 0
 213.841796875 603.602539062 192.466796875 611.727539062 177.626953125 628.254882812 c 0
 160.041015625 647.840820312 150.55859375 674.068359375 149.4453125 701.059570312 c 2
 149.431640625 701.37890625 l 1
 149.197265625 707.743164062 l 1
 192.111328125 707.743164062 l 1
 193.21875 702.8046875 l 2
 196.275390625 689.452148438 202.9140625 676.708984375 214.84375 669.452148438 c 0
 228.80859375 660.958007812 246.177734375 659.11328125 262.130859375 660.495117188 c 0
 274.974609375 661.607421875 288.0546875 665.171875 298.03515625 674.193359375 c 0
 306.1328125 681.514648438 310.79296875 692.102539062 313.2421875 702.8046875 c 2
 314.349609375 707.743164062 l 1
 357.263671875 707.743164062 l 2
 357.181640625 705.514648438 357.103515625 703.288085938 357.015625 701.059570312 c 0
EndSplineSet
EndChar

StartChar: uniE037
Encoding: 57399 57399 53
Width: 506
VWidth: 0
Flags: HW
LayerCount: 2
Fore
SplineSet
83.7421875 402.775390625 m 1
 33 402.775390625 l 1
 37.0869140625 546 l 1
 469.313476562 546 l 1
 470.67578125 498.2578125 472.038085938 450.515625 473.400390625 402.775390625 c 1
 422.658203125 402.775390625 l 1
 418.290039062 440.39453125 l 2
 416.559570312 454.497070312 412.012695312 468.325195312 404.049804688 480.01953125 c 0
 395.029296875 493.266601562 375.971679688 496.154296875 362.51953125 496.181640625 c 2
 296.358398438 496.181640625 l 1
 296.358398438 91.4208984375 l 2
 296.375976562 82.4853515625 297.05078125 73.4462890625 300.32421875 65.2177734375 c 0
 302.62890625 59.4248046875 306.702148438 54.474609375 312.728515625 51.5703125 c 0
 324.61328125 45.8408203125 338.080078125 43.859375 351.336914062 43.8388671875 c 2
 374.71484375 43.8388671875 l 1
 374.71484375 0 l 1
 130.193359375 0 l 1
 130.193359375 43.8388671875 l 1
 151.239257812 43.8388671875 172.66015625 42.5751953125 191.983398438 51.0009765625 c 0
 195.20703125 52.4072265625 198.229492188 54.228515625 200.591796875 57.001953125 c 0
 207.75390625 65.4091796875 208.52734375 77.48828125 208.548828125 87.685546875 c 2
 208.548828125 496.181640625 l 1
 186.579101562 496.181640625 164.610351562 496.228515625 142.639648438 496.180664062 c 0
 128.153320312 496.1015625 112.732421875 493.686523438 103.563476562 481.71484375 c 0
 94.6279296875 470.046875 89.9287109375 455.216796875 88.1103515625 440.39453125 c 2
 83.7421875 402.775390625 l 1
356.997070312 701.059570312 m 0
 355.887695312 674.216796875 346.622070312 647.594726562 328.189453125 627.567382812 c 0
 320.166992188 618.8515625 310.025390625 612.198242188 299.057617188 607.853515625 c 0
 278.680664062 599.783203125 255.752929688 598.737304688 235.177734375 601.125 c 0
 213.822265625 603.602539062 192.447265625 611.727539062 177.608398438 628.254882812 c 0
 160.022460938 647.840820312 150.540039062 674.068359375 149.424804688 701.059570312 c 2
 149.412109375 701.37890625 l 1
 149.177734375 707.743164062 l 1
 192.090820312 707.743164062 l 1
 193.19921875 702.8046875 l 2
 196.255859375 689.452148438 202.895507812 676.708984375 214.825195312 669.452148438 c 0
 228.7890625 660.958007812 246.159179688 659.11328125 262.111328125 660.495117188 c 0
 274.956054688 661.607421875 288.036132812 665.171875 298.014648438 674.193359375 c 0
 306.11328125 681.514648438 310.7734375 692.102539062 313.22265625 702.8046875 c 2
 314.331054688 707.743164062 l 1
 357.244140625 707.743164062 l 2
 357.162109375 705.514648438 357.083984375 703.288085938 356.997070312 701.059570312 c 0
EndSplineSet
EndChar

StartChar: uniE038
Encoding: 57400 57400 54
Width: 587
VWidth: 0
Flags: HW
LayerCount: 2
Fore
SplineSet
260.836914062 501.810546875 m 1
 242.059570312 501.810546875 223.051757812 502.249023438 206.017578125 494.046875 c 0
 203.419921875 492.794921875 200.951171875 491.275390625 198.950195312 489.159179688 c 0
 190.87109375 480.620117188 189.637695312 467.366210938 189.560546875 454.553710938 c 0
 189.365234375 356.649414062 189.45703125 258.743164062 189.559570312 160.837890625 c 0
 189.6640625 128.21484375 196.15625 93.478515625 223.454101562 72.783203125 c 0
 249.409179688 53.1064453125 284.301757812 46.505859375 316.805664062 47.6513671875 c 0
 349.088867188 48.787109375 381.954101562 56.4541015625 404.513671875 84.5439453125 c 0
 420.915039062 104.96484375 428.305664062 131.747070312 428.400390625 157.94921875 c 0
 428.514648438 257.805664062 428.612304688 357.6640625 428.399414062 457.522460938 c 0
 428.32421875 471.037109375 426.418945312 486.221679688 414.612304688 492.869140625 c 0
 402.392578125 499.748046875 387.482421875 501.791015625 373.125 501.810546875 c 2
 357.123046875 501.810546875 l 1
 357.123046875 545.83984375 l 1
 557.94921875 545.83984375 l 1
 557.94921875 501.810546875 l 1
 539.118164062 501.810546875 520.1015625 502.21875 503.130859375 494.046875 c 0
 500.5703125 492.814453125 498.13671875 491.327148438 496.147460938 489.249023438 c 0
 487.974609375 480.711914062 486.750976562 467.366210938 486.672851562 454.553710938 c 0
 486.473632812 355.11328125 486.795898438 255.670898438 486.671875 156.23046875 c 0
 486.517578125 114.639648438 474.484375 72.4541015625 444.754882812 41.5478515625 c 0
 430.173828125 26.3896484375 412.225585938 14.599609375 392.696289062 6.5341796875 c 0
 353.88671875 -9.49609375 310.696289062 -12.0283203125 270.065429688 -9.1083984375 c 0
 237.7265625 -6.783203125 205.588867188 0.0927734375 176.845703125 15.494140625 c 0
 152.06640625 28.771484375 131.219726562 48.447265625 118.682617188 74.8447265625 c 0
 105.28125 103.063476562 101.374023438 135.033203125 101.27734375 165.110351562 c 0
 101.172851562 262.580078125 101.48828125 360.05078125 101.276367188 457.522460938 c 0
 101.202148438 471.036132812 99.2939453125 486.22265625 87.4892578125 492.869140625 c 0
 75.2685546875 499.748046875 60.359375 501.791015625 46.0009765625 501.810546875 c 2
 30 501.810546875 l 1
 30 545.83984375 l 1
 260.836914062 545.83984375 l 1
 260.836914062 531.1640625 260.836914062 516.487304688 260.836914062 501.810546875 c 1
398.295898438 701.578125 m 0
 397.180664062 674.596679688 387.86328125 647.838867188 369.327148438 627.708007812 c 0
 361.260742188 618.948242188 351.063476562 612.259765625 340.034179688 607.893554688 c 0
 319.543945312 599.782226562 296.489257812 598.731445312 275.799804688 601.130859375 c 0
 254.326171875 603.62109375 232.831054688 611.788085938 217.91015625 628.400390625 c 0
 200.2265625 648.0859375 190.69140625 674.448242188 189.5703125 701.578125 c 2
 189.556640625 701.899414062 l 1
 189.322265625 708.293945312 l 1
 232.473632812 708.293945312 l 1
 233.587890625 703.331054688 l 2
 236.662109375 689.91015625 243.336914062 677.1015625 255.333984375 669.807617188 c 0
 269.375976562 661.26953125 286.841796875 659.416015625 302.8828125 660.803710938 c 0
 315.798828125 661.922851562 328.951171875 665.505859375 338.985351562 674.573242188 c 0
 347.12890625 681.932617188 351.815429688 692.575195312 354.278320312 703.331054688 c 2
 355.391601562 708.293945312 l 1
 398.543945312 708.293945312 l 2
 398.461914062 706.055664062 398.3828125 703.817382812 398.295898438 701.578125 c 0
EndSplineSet
EndChar

StartChar: uniE039
Encoding: 57401 57401 55
Width: 224
VWidth: 0
Flags: HW
LayerCount: 2
Fore
SplineSet
214.0859375 701.060546875 m 0
 212.977539062 674.216796875 203.7109375 647.595703125 185.278320312 627.567382812 c 0
 177.256835938 618.852539062 167.114257812 612.198242188 156.145507812 607.853515625 c 0
 135.76953125 599.783203125 112.841796875 598.737304688 92.267578125 601.125 c 0
 70.9111328125 603.603515625 49.5361328125 611.728515625 34.6962890625 628.254882812 c 0
 17.1123046875 647.83984375 7.6279296875 674.068359375 6.513671875 701.060546875 c 2
 6.5009765625 701.379882812 l 1
 6.2666015625 707.7421875 l 1
 49.1806640625 707.7421875 l 1
 50.2880859375 702.8046875 l 2
 53.96484375 686.745117188 63.0224609375 672.26953125 80.0888671875 665.359375 c 0
 92.4228515625 660.366210938 106.130859375 659.362304688 119.200195312 660.495117188 c 0
 132.044921875 661.606445312 145.125 665.171875 155.103515625 674.193359375 c 0
 163.202148438 681.514648438 167.861328125 692.103515625 170.311523438 702.8046875 c 2
 171.419921875 707.7421875 l 1
 214.333007812 707.7421875 l 2
 214.250976562 705.515625 214.173828125 703.288085938 214.0859375 701.060546875 c 0
215.907226562 0.0029296875 m 1
 4.6669921875 0.0029296875 l 1
 4.6669921875 41.2431640625 l 1
 22.2998046875 41.2431640625 40.1064453125 40.861328125 56 48.5166015625 c 0
 58.3974609375 49.6708984375 60.67578125 51.0634765625 62.5390625 53.0107421875 c 0
 70.19140625 61.0068359375 71.337890625 73.5087890625 71.41015625 85.509765625 c 0
 71.662109375 211.4296875 71.6845703125 337.3515625 71.41015625 463.271484375 c 0
 71.3408203125 475.9296875 69.5546875 490.155273438 58.5 496.380859375 c 0
 47.0576171875 502.82421875 33.0947265625 504.737304688 19.650390625 504.7578125 c 2
 4.6669921875 504.7578125 l 1
 4.6669921875 546 l 1
 149.163085938 546 l 1
 149.163085938 392.668945312 149.163085938 239.337890625 149.163085938 86.0068359375 c 0
 149.190429688 72.1787109375 150.60546875 56.69921875 161.891601562 49.9189453125 c 0
 173.217773438 43.11328125 187.420898438 41.263671875 200.923828125 41.2431640625 c 2
 215.907226562 41.2431640625 l 1
 215.907226562 0.0029296875 l 1
EndSplineSet
EndChar

StartChar: uniE02C
Encoding: 57388 57388 56
Width: 585
Flags: HW
LayerCount: 2
Fore
SplineSet
33 0 m 1
 33 42 l 1
 41 42 l 2
 63.6669921875 42 83 46.1669921875 99 54.5 c 0
 115 62.8330078125 123 82.6669921875 123 114 c 2
 123 650 l 2
 123 679.333007812 114.833007812 698 98.5 706 c 0
 82.1669921875 714 63 718 41 718 c 2
 33 718 l 1
 33 760 l 1
 202 760 l 1
 202 374 l 2
 202 364.666992188 201.833007812 353 201.5 339 c 0
 201.166992188 325 200.666992188 311 200 297 c 0
 199.333007812 283 198.833007812 271.333007812 198.5 262 c 2
 198 248 l 1
 323 385 l 2
 344.333007812 409 358.833007812 427.5 366.5 440.5 c 0
 374.166992188 453.5 378 464.666992188 378 474 c 0
 378 482.666992188 374 488.166992188 366 490.5 c 0
 358 492.833007812 345.666992188 494 329 494 c 1
 329 536 l 1
 550 536 l 1
 550 494 l 1
 527.333007812 494 504.666992188 485.833007812 482 469.5 c 0
 459.333007812 453.166992188 435 430.333007812 409 401 c 2
 339 322 l 1
 472 124 l 2
 489.333007812 97.3330078125 506.5 77 523.5 63 c 0
 540.5 49 560.333007812 42 583 42 c 2
 586 42 l 1
 586 0 l 1
 572 0 l 2
 542.666992188 0 518.5 1 499.5 3 c 0
 480.5 5 464.5 9.1669921875 451.5 15.5 c 0
 438.5 21.8330078125 426.166992188 31.5 414.5 44.5 c 0
 402.833007812 57.5 390 75 376 97 c 2
 276 254 l 1
 202 199 l 1
 202 109 l 2
 202 79.6669921875 210.166992188 61.1669921875 226.5 53.5 c 0
 242.833007812 45.8330078125 262 42 284 42 c 2
 287 42 l 1
 287 0 l 1
 33 0 l 1
EndSplineSet
EndChar

StartChar: uniE030
Encoding: 57392 57392 57
Width: 577
VWidth: 0
Flags: HW
LayerCount: 2
Fore
SplineSet
539.967773438 0 m 1
 37.7685546875 0 l 1
 33 143.224609375 l 1
 90.1435546875 143.224609375 l 1
 95.224609375 105.724609375 l 2
 97.3583984375 90.8134765625 102.916992188 76.1259765625 113.174804688 64.646484375 c 0
 122.771484375 53.9052734375 138.815429688 50.5712890625 154.853515625 49.923828125 c 2
 154.942382812 49.9208984375 l 1
 154.942382812 186.21875 155.123046875 322.517578125 154.942382812 458.81640625 c 0
 154.8984375 469.4453125 154.740234375 480.698242188 149.899414062 490.055664062 c 0
 146.961914062 495.734375 140.4375 499.12109375 134.03125 500.84375 c 0
 130.627929688 501.758789062 127.09765625 502.15234375 123.569335938 502.16015625 c 2
 106.809570312 502.16015625 l 1
 106.809570312 545.999023438 l 1
 213.689453125 545.999023438 l 1
 213.688476562 454.583984375 l 1
 213.688476562 49.81640625 l 1
 345.65234375 49.81640625 l 1
 345.65234375 186.1484375 345.90625 322.478515625 345.651367188 458.809570312 c 0
 345.602539062 467.665039062 344.924804688 476.770507812 341.451171875 484.662109375 c 0
 339.5 489.091796875 336.2734375 492.840820312 331.732421875 495.163085938 c 0
 321.936523438 500.171875 310.747070312 502.142578125 299.690429688 502.16015625 c 2
 278.836914062 502.16015625 l 1
 278.836914062 545.999023438 l 1
 422.344726562 545.999023438 l 1
 422.353515625 523.2578125 422.361328125 500.516601562 422.3671875 477.774414062 c 2
 422.370117188 464.96875 l 1
 422.370117188 454.583984375 l 1
 422.370117188 49.9326171875 l 1
 438.684570312 50.5771484375 456.061523438 53.859375 465.981445312 66.345703125 c 0
 466.333984375 66.7900390625 466.681640625 67.2373046875 467.025390625 67.689453125 c 0
 475.403320312 78.7119140625 480.551757812 92.0322265625 482.512695312 105.725585938 c 2
 487.592773438 143.224609375 l 1
 544.736328125 143.224609375 l 1
 539.967773438 0 l 1
EndSplineSet
EndChar
